<svg width="500" height="500" viewBox="0 0 500 500" fill="none" xmlns="http://www.w3.org/2000/svg">
<path d="M71.5199 180.86L72.1899 177.08C77.8899 145.24 100.19 118.76 130.76 109.08C134.685 107.84 138.696 106.891 142.76 106.24C172.13 101.57 203.66 112.97 223.59 135.47C235.31 148.7 243.79 165.88 259.44 173.93C279.82 184.4 304.15 175.59 325.11 166.74C346.07 157.89 370.43 149.13 390.76 159.74C403.5 166.35 411.82 179.54 416.3 193.26C428.15 229.58 415.63 270.97 390.2 298.97C364.77 326.97 328.2 342.71 290.98 349.08C238.86 358 182.54 348.98 138.98 318.31C95.4199 287.64 66.6299 234 71.5199 180.86Z" fill="#E3D1DA"/>
<path d="M318.55 84C330.225 84 339.69 74.5353 339.69 62.86C339.69 51.1847 330.225 41.72 318.55 41.72C306.875 41.72 297.41 51.1847 297.41 62.86C297.41 74.5353 306.875 84 318.55 84Z" fill="#E3D1DA"/>
<path d="M262.4 100.68L229.08 45.13C228.627 44.3695 228.022 43.7106 227.303 43.1944C226.583 42.6783 225.766 42.3159 224.9 42.13L194.8 35.6C193.233 35.2606 191.595 35.5211 190.21 36.3302C188.825 37.1392 187.794 38.4379 187.32 39.97L178.17 69.37C177.907 70.2209 177.824 71.1172 177.925 72.002C178.027 72.8868 178.311 73.7408 178.76 74.51L212.08 130C212.938 131.468 214.343 132.535 215.987 132.968C217.631 133.402 219.38 133.165 220.85 132.31L260.09 109.42C261.552 108.564 262.615 107.164 263.048 105.527C263.481 103.889 263.248 102.146 262.4 100.68ZM201.94 56.07C200.877 56.5925 199.682 56.7884 198.508 56.6331C197.333 56.4778 196.231 55.9781 195.34 55.1972C194.449 54.4163 193.809 53.3891 193.501 52.245C193.193 51.1009 193.23 49.8912 193.609 48.7685C193.987 47.6457 194.689 46.6601 195.627 45.9359C196.565 45.2118 197.696 44.7815 198.878 44.6993C200.06 44.6171 201.24 44.8867 202.269 45.4741C203.298 46.0615 204.13 46.9404 204.66 48C205.014 48.7079 205.225 49.4789 205.28 50.2686C205.335 51.0583 205.233 51.8511 204.98 52.6012C204.727 53.3514 204.328 54.0441 203.807 54.6394C203.285 55.2347 202.651 55.7209 201.94 56.07Z" fill="#DF1683"/>
<path d="M201.94 56.07C201.94 56.07 202.41 55.79 203.11 55.17C204.097 54.2765 204.758 53.0805 204.99 51.77C205.182 50.7132 205.077 49.6237 204.686 48.6234C204.294 47.6231 203.632 46.7515 202.774 46.1059C201.915 45.4603 200.894 45.0662 199.824 44.9678C198.755 44.8694 197.679 45.0704 196.717 45.5485C195.755 46.0265 194.945 46.7628 194.378 47.6748C193.81 48.5869 193.508 49.6388 193.504 50.7129C193.5 51.7871 193.795 52.8411 194.356 53.7572C194.917 54.6732 195.722 55.4151 196.68 55.9C197.864 56.5035 199.215 56.6969 200.52 56.45C201.45 56.27 201.92 56.02 201.94 56.07C201.841 56.1538 201.73 56.2213 201.61 56.27C201.277 56.4389 200.924 56.5665 200.56 56.65C199.218 56.9744 197.805 56.826 196.56 56.23C195.62 55.78 194.808 55.0993 194.201 54.2512C193.595 53.4032 193.212 52.4155 193.09 51.38C192.936 50.1483 193.163 48.8988 193.74 47.8C194.344 46.6079 195.316 45.6427 196.513 45.048C197.709 44.4534 199.066 44.2612 200.38 44.5C201.195 44.6449 201.972 44.9512 202.667 45.4007C203.361 45.8503 203.959 46.4341 204.425 47.1178C204.891 47.8016 205.215 48.5716 205.379 49.3825C205.543 50.1934 205.544 51.0289 205.38 51.84C205.104 53.2104 204.357 54.4412 203.27 55.32C202.984 55.5594 202.668 55.7611 202.33 55.92C202.208 55.9879 202.077 56.0384 201.94 56.07Z" fill="#340920"/>
<path d="M262.4 100.68C262.4 100.68 262.53 100.89 262.75 101.31C263.037 101.944 263.223 102.619 263.3 103.31C263.411 104.457 263.214 105.614 262.73 106.66C262.411 107.325 261.985 107.933 261.47 108.46C260.876 109.039 260.202 109.53 259.47 109.92L233.88 124.92L225.4 129.92L220.88 132.56C220.062 133.018 219.156 133.297 218.221 133.38C217.287 133.462 216.346 133.347 215.46 133.04C214.547 132.731 213.716 132.218 213.03 131.54C212.367 130.84 211.802 130.052 211.35 129.2L208.35 124.2C206.35 120.867 204.27 117.41 202.11 113.83L188.73 91.6L181.66 79.82L179.86 76.82L179 75.31C178.672 74.8054 178.387 74.2734 178.15 73.72C177.693 72.5675 177.565 71.3109 177.78 70.09C177.906 69.4978 178.066 68.9134 178.26 68.34L178.79 66.63C181.63 57.5 184.41 48.63 187.08 39.99C187.413 38.8736 188.029 37.8622 188.868 37.0544C189.708 36.2466 190.742 35.6697 191.87 35.38C192.979 35.0998 194.141 35.0998 195.25 35.38L198.45 36.08L210.88 38.78L222.7 41.35C223.7 41.58 224.6 41.74 225.57 42.01C226.523 42.3048 227.395 42.8145 228.12 43.5C228.799 44.1855 229.369 44.9713 229.81 45.83L231.24 48.22L241.7 65.82L256.89 91.3L261 98.24L262.06 100.06C262.29 100.46 262.4 100.68 262.4 100.68C262.4 100.68 262.26 100.48 262.01 100.08C261.76 99.68 261.39 99.08 260.91 98.3L256.72 91.41L241.39 66L230.82 48.46C230.35 47.67 229.87 46.87 229.38 46.07C228.961 45.2462 228.414 44.4936 227.76 43.84C227.083 43.2036 226.269 42.7315 225.38 42.46C224.49 42.21 223.5 42.04 222.55 41.82L210.72 39.27L198.29 36.58L195.1 35.89C194.063 35.6301 192.977 35.6301 191.94 35.89C190.896 36.1562 189.939 36.69 189.164 37.4388C188.389 38.1876 187.822 39.1255 187.52 40.16C184.85 48.77 182.08 57.68 179.24 66.81L178.71 68.51C178.519 69.0632 178.362 69.6276 178.24 70.2C178.041 71.3233 178.159 72.4799 178.58 73.54C178.809 74.0502 179.084 74.5388 179.4 75L180.3 76.51L182.11 79.51L189.17 91.3L202.52 113.59L208.74 124L211.74 129C212.164 129.82 212.699 130.577 213.33 131.25C213.972 131.881 214.748 132.36 215.6 132.65C216.428 132.938 217.308 133.048 218.182 132.972C219.056 132.896 219.904 132.637 220.67 132.21L225.19 129.59C228.15 127.877 230.983 126.23 233.69 124.65L259.36 109.78C260.094 109.413 260.768 108.937 261.36 108.37C262.02 107.726 262.529 106.943 262.849 106.079C263.169 105.214 263.292 104.288 263.21 103.37C263.125 102.428 262.849 101.513 262.4 100.68Z" fill="#340920"/>
<path d="M197.1 91.48C193.85 86.06 195.29 80.75 199.9 77.98C204.51 75.21 209.9 76.4 213.17 81.82C216.44 87.24 214.99 92.55 210.34 95.35C205.69 98.15 200.39 96.94 197.1 91.48ZM207.76 85.07C205.85 81.9 203.97 81.31 202.45 82.23C200.93 83.15 200.56 85.07 202.45 88.23C204.34 91.39 206.32 91.93 207.75 91.07C209.18 90.21 209.67 88.25 207.76 85.07ZM218.67 67.24L225.12 63.36L222.55 107.56L216.11 111.44L218.67 67.24ZM228.1 93C224.84 87.58 226.23 82.3 230.89 79.5C235.55 76.7 240.89 77.92 244.17 83.34C247.45 88.76 246 94 241.33 96.83C236.66 99.66 231.38 98.42 228.1 93ZM238.75 86.59C236.84 83.42 234.92 82.86 233.45 83.75C231.98 84.64 231.56 86.59 233.45 89.75C235.34 92.91 237.28 93.48 238.75 92.59C240.22 91.7 240.66 89.73 238.75 86.55V86.59Z" fill="#FFF5FB"/>
<path d="M322.85 172.45L312.45 171.23C306.595 177.174 298.729 180.712 290.397 181.151C282.065 181.589 273.871 178.895 267.425 173.598C260.979 168.302 256.747 160.786 255.561 152.527C254.375 144.269 256.321 135.866 261.016 128.969C265.711 122.073 272.816 117.182 280.934 115.258C289.053 113.334 297.597 114.516 304.888 118.571C312.179 122.627 317.689 129.263 320.336 137.176C322.982 145.088 322.573 153.704 319.19 161.33L322.85 172.45Z" fill="#FFF5FB"/>
<path d="M322.85 172.45C322.85 172.45 322.79 172.22 322.64 171.75C322.49 171.28 322.27 170.54 321.98 169.64C321.38 167.71 320.49 164.91 319.34 161.27L319.26 161.01L319.08 161.22L319.33 161.38C321.643 156.247 322.624 150.613 322.18 145C321.894 141.405 321.019 137.881 319.59 134.57C316.224 126.63 309.923 120.296 302 116.89C294.924 113.806 287.001 113.255 279.565 115.33C272.13 117.404 265.637 121.978 261.18 128.28C257.994 132.762 255.958 137.957 255.25 143.41C254.59 148.606 255.131 153.885 256.83 158.84C258.438 163.5 261.069 167.74 264.53 171.25C268.842 175.668 274.286 178.816 280.267 180.348C286.247 181.881 292.534 181.74 298.44 179.94C303.785 178.298 308.63 175.337 312.53 171.33H312.41L320.21 172.15L322.21 172.34L322.86 172.4C322.86 172.4 322.61 172.4 322.16 172.29L320.16 172.03L312.48 171.03H312.41H312.36C309.25 174.153 305.548 176.625 301.473 178.302C297.397 179.98 293.027 180.829 288.62 180.8C284.212 180.771 279.855 179.865 275.801 178.134C271.748 176.404 268.079 173.883 265.01 170.72C261.628 167.265 259.056 163.101 257.48 158.53C255.827 153.668 255.307 148.493 255.96 143.4C256.992 135.58 260.783 128.387 266.651 123.115C272.518 117.844 280.075 114.842 287.96 114.65C294.559 114.509 301.049 116.342 306.599 119.914C312.149 123.487 316.506 128.635 319.11 134.7C320.534 137.958 321.412 141.427 321.71 144.97C322.183 150.508 321.265 156.077 319.04 161.17L318.6 162.17L319.29 161.31H319.04L321.82 169.52L322.56 171.65C322.75 172.19 322.85 172.45 322.85 172.45Z" fill="#340920"/>
<path d="M272.74 149.06L276.86 144.66L285.31 151.67L300.9 135.62L305 139.74L284.99 159.91L272.74 149.06Z" fill="#DF1683"/>
<path d="M243 275.51L159.34 237.43L162.27 234.69C168.27 229.03 176.27 227.33 183.59 230.14L233.19 248.22L241.52 254.22L242.24 261.33L251.48 266.9L243 275.51Z" fill="#DACAD2"/>
<path d="M243 275.51C243 275.51 243.19 275.29 243.55 274.91L245.18 273.23L251.4 266.85V267.03L242.13 261.5H242.06V261.41C241.83 259.21 241.58 256.83 241.32 254.31L241.39 254.44L233.05 248.44H233.1L204.73 238.14L188.52 232.24L184.3 230.71C183.59 230.44 182.88 230.2 182.18 229.96C181.46 229.745 180.729 229.568 179.99 229.43C176.993 228.879 173.909 229.047 170.99 229.92C168.731 230.617 166.603 231.681 164.69 233.07C162.888 234.501 161.165 236.03 159.53 237.65L159.46 237.22L218.93 264.4L236.59 272.52L241.36 274.74L242.6 275.32L243.02 275.54L242.61 275.37L241.38 274.83L236.61 272.71L218.93 264.71L159.25 237.71L158.89 237.55L159.18 237.29C160.832 235.661 162.568 234.119 164.38 232.67C166.341 231.248 168.524 230.16 170.84 229.45C173.848 228.54 177.03 228.365 180.12 228.94C180.879 229.082 181.631 229.266 182.37 229.49C183.09 229.73 183.82 229.98 184.52 230.24L188.74 231.78L204.94 237.7L233.25 248L241.56 254.06H241.63V254.14C241.87 256.65 242.11 259.03 242.33 261.24L242.25 261.12L251.47 266.73L251.61 266.81L251.5 266.92C248.75 269.65 246.62 271.78 245.15 273.25L243.56 275C243.19 275.34 243 275.51 243 275.51Z" fill="#340920"/>
<path d="M229.87 376.84L202.76 205.76C202.419 203.406 201.59 201.149 200.328 199.133C199.066 197.117 197.398 195.386 195.43 194.05L127.31 147.78C123.763 145.373 119.443 144.382 115.201 145C110.96 145.618 107.103 147.801 104.39 151.12L52.3098 214.91C50.8077 216.754 49.705 218.891 49.0715 221.184C48.4381 223.477 48.2877 225.876 48.6298 228.23L75.7398 399.31C76.0643 401.538 76.8246 403.681 77.9773 405.615C79.1299 407.549 80.6524 409.237 82.4577 410.583C84.263 411.928 86.3158 412.905 88.4987 413.457C90.6816 414.009 92.9519 414.126 95.1798 413.8L215.38 396.28C217.608 395.956 219.75 395.195 221.685 394.043C223.619 392.89 225.307 391.367 226.653 389.562C227.998 387.757 228.975 385.704 229.527 383.521C230.079 381.338 230.195 379.068 229.87 376.84ZM124.54 205.75C121.365 205.998 118.188 205.298 115.411 203.74C112.634 202.182 110.381 199.835 108.938 196.997C107.494 194.158 106.925 190.956 107.301 187.794C107.678 184.632 108.984 181.652 111.054 179.233C113.124 176.813 115.866 175.061 118.931 174.2C121.997 173.338 125.249 173.404 128.277 174.391C131.304 175.378 133.971 177.24 135.941 179.742C137.91 182.245 139.093 185.275 139.34 188.45C139.671 192.707 138.298 196.921 135.522 200.165C132.747 203.409 128.796 205.418 124.54 205.75Z" fill="#DF1683"/>
<path d="M124.54 205.75C125.844 205.542 127.131 205.237 128.39 204.84C129.85 204.346 131.226 203.631 132.47 202.72C135.483 200.576 137.655 197.45 138.613 193.879C139.571 190.307 139.255 186.514 137.72 183.15C137.096 181.758 136.263 180.47 135.25 179.33C134.732 178.736 134.178 178.175 133.59 177.65C132.957 177.137 132.289 176.669 131.59 176.25C128.738 174.489 125.4 173.68 122.058 173.94C118.716 174.201 115.544 175.518 113 177.7C112.393 178.225 111.822 178.79 111.29 179.39C110.788 179.998 110.324 180.636 109.9 181.3C109.08 182.589 108.459 183.995 108.06 185.47C107.066 189.027 107.337 192.819 108.827 196.198C110.317 199.577 112.933 202.335 116.23 204C117.605 204.703 119.078 205.195 120.6 205.46C121.904 205.656 123.221 205.756 124.54 205.76H124.28L123.51 205.81C123.094 205.845 122.676 205.845 122.26 205.81C121.69 205.801 121.121 205.744 120.56 205.64C119.011 205.401 117.507 204.929 116.1 204.24C114.024 203.226 112.188 201.782 110.712 200.005C109.236 198.227 108.155 196.157 107.54 193.93C106.77 191.115 106.77 188.145 107.54 185.33C107.942 183.809 108.576 182.358 109.42 181.03C110.27 179.622 111.348 178.365 112.61 177.31C115.237 175.028 118.528 173.651 121.997 173.381C125.467 173.111 128.931 173.963 131.88 175.81C133.288 176.659 134.548 177.734 135.61 178.99C136.65 180.186 137.5 181.535 138.13 182.99C139.331 185.648 139.797 188.58 139.48 191.48C139.225 193.776 138.483 195.992 137.303 197.978C136.124 199.965 134.534 201.677 132.64 203C131.356 203.9 129.943 204.601 128.45 205.08C127.911 205.264 127.36 205.407 126.8 205.51C126.393 205.61 125.978 205.677 125.56 205.71L124.8 205.78L124.54 205.75Z" fill="#340920"/>
<path d="M229.87 376.84C229.87 376.84 229.97 377.48 230.07 378.74C230.127 380.617 229.884 382.49 229.35 384.29C229.26 384.59 229.17 384.89 229.07 385.2C228.97 385.51 228.82 385.82 228.68 386.13C228.389 386.817 228.055 387.485 227.68 388.13C226.817 389.559 225.764 390.864 224.55 392.01C223.108 393.327 221.459 394.398 219.67 395.18C219.185 395.398 218.688 395.585 218.18 395.74C217.664 395.92 217.136 396.063 216.6 396.17C215.51 396.41 214.38 396.56 213.22 396.73L134.74 408.26L108.74 412.06L94.8999 414.06C92.4629 414.373 89.9873 414.165 87.6362 413.452C85.2852 412.738 83.112 411.535 81.2599 409.92C79.3549 408.275 77.8413 406.225 76.8299 403.92C75.8976 401.551 75.2986 399.064 75.0499 396.53C74.2499 391.53 73.4399 386.4 72.6199 381.23C70.9666 370.87 69.2733 360.203 67.5399 349.23C64.0699 327.36 60.4299 304.41 56.6499 280.61C54.7566 268.717 52.8399 256.62 50.8999 244.32C50.4099 241.25 49.8999 238.16 49.4299 235.07C49.1799 233.52 48.9399 231.97 48.6899 230.42C48.3846 228.861 48.2107 227.278 48.1699 225.69C48.1859 222.458 49.0999 219.293 50.8099 216.55C51.7077 215.227 52.6827 213.958 53.7299 212.75L56.7299 209.04C72.9099 189.233 88.6666 169.967 104 151.24C104.953 150.047 106.051 148.979 107.27 148.06C107.872 147.602 108.503 147.185 109.16 146.81C109.822 146.428 110.51 146.094 111.22 145.81C114.031 144.681 117.088 144.302 120.09 144.71C121.574 144.92 123.025 145.317 124.41 145.89C125.769 146.485 127.062 147.219 128.27 148.08L135.5 153L163.63 172.11L190.4 190.3L193.64 192.5C194.71 193.25 195.81 193.93 196.83 194.76C198.848 196.413 200.465 198.502 201.56 200.87C202.106 202.033 202.519 203.254 202.79 204.51C203.05 205.77 203.21 207 203.41 208.24C203.803 210.713 204.193 213.167 204.58 215.6L213.12 269.71C218.33 302.79 222.54 329.56 225.45 348.07C226.9 357.31 228.02 364.5 228.78 369.37C229.15 371.81 229.44 373.66 229.63 374.92C229.82 376.18 229.9 376.81 229.9 376.81L229.58 374.93C229.373 373.67 229.073 371.823 228.68 369.39C227.89 364.52 226.74 357.34 225.25 348.1C222.3 329.59 218.03 302.83 212.75 269.76C210.12 253.22 207.24 235.11 204.15 215.66C203.757 213.227 203.367 210.777 202.98 208.31C202.77 207.07 202.61 205.82 202.36 204.6C201.54 200.873 199.49 197.53 196.54 195.11C195.54 194.31 194.45 193.62 193.38 192.88L190.14 190.68L163.36 172.51L135.22 153.41C132.833 151.783 130.423 150.147 127.99 148.5C126.811 147.655 125.547 146.935 124.22 146.35C122.872 145.8 121.461 145.418 120.02 145.21C117.106 144.812 114.138 145.181 111.41 146.28C110.725 146.553 110.057 146.866 109.41 147.22C108.773 147.59 108.159 147.998 107.57 148.44C106.383 149.331 105.315 150.37 104.39 151.53L57.2099 209.33C56.2099 210.57 55.2099 211.8 54.2099 213.04C53.1686 214.228 52.2034 215.48 51.3199 216.79C49.6647 219.454 48.7787 222.524 48.7599 225.66C48.8001 227.219 48.9741 228.771 49.2799 230.3C49.5199 231.86 49.7699 233.41 50.0099 234.95C50.5033 238.05 50.9933 241.133 51.4799 244.2C53.4199 256.487 55.3366 268.587 57.2299 280.5C60.9899 304.3 64.6199 327.25 68.0799 349.12L73.1399 381.12C73.9599 386.3 74.7666 391.403 75.5599 396.43C75.8 398.922 76.3856 401.369 77.2999 403.7C78.2801 405.96 79.7567 407.969 81.6199 409.58C83.4262 411.154 85.5449 412.329 87.837 413.027C90.1291 413.725 92.5428 413.93 94.9199 413.63L108.75 411.63L134.75 407.85L213.26 396.49C214.41 396.32 215.54 396.18 216.62 395.94C217.149 395.837 217.67 395.696 218.18 395.52C218.686 395.374 219.181 395.19 219.66 394.97C221.434 394.208 223.07 393.157 224.5 391.86C225.701 390.717 226.743 389.419 227.6 388C227.967 387.375 228.301 386.73 228.6 386.07C228.727 385.75 228.857 385.44 228.99 385.14C229.08 384.83 229.18 384.53 229.27 384.24C229.813 382.452 230.069 380.589 230.03 378.72C230.03 378.09 229.95 377.62 229.93 377.3C229.91 376.98 229.87 376.84 229.87 376.84Z" fill="#340920"/>
<path d="M77.13 288.72C74.47 272 83.35 260.29 97.56 258C111.77 255.71 123.99 264.11 126.65 280.8C129.31 297.49 120.43 309.23 106.09 311.52C91.75 313.81 79.81 305.55 77.13 288.72ZM110 283.49C108.44 273.7 104.38 270.38 99.69 271.13C95.27 271.83 92.17 276.29 93.69 286.08C95.21 295.87 99.59 299.15 104 298.44C108.69 297.69 111.52 293.28 110 283.49ZM154.9 250.17L174.73 247L124.18 354.07L104.32 357.23L154.9 250.17ZM152.57 323.38C149.91 306.69 158.65 294.97 172.99 292.69C187.33 290.41 199.43 298.8 202.09 315.49C204.75 332.18 195.87 343.92 181.52 346.21C167.17 348.5 155.21 340.21 152.53 323.38H152.57ZM185.4 318.15C183.84 308.36 179.63 305.07 175.08 305.79C170.53 306.51 167.56 310.95 169.08 320.74C170.6 330.53 174.84 333.83 179.39 333.1C183.94 332.37 186.92 328 185.36 318.15H185.4Z" fill="#FFF5FB"/>
<path d="M389.73 76.69C390.566 75.6439 391.634 74.8053 392.848 74.2398C394.062 73.6743 395.391 73.3971 396.73 73.43C397.81 73.43 399.01 73.68 399.88 73.03C400.434 72.4853 400.891 71.8494 401.23 71.15C401.586 70.681 402.033 70.2883 402.544 69.9951C403.055 69.702 403.619 69.5145 404.204 69.4436C404.789 69.3727 405.382 69.42 405.948 69.5825C406.514 69.7451 407.042 70.0197 407.5 70.39C407.886 70.8352 408.346 71.2107 408.86 71.5C411.05 72.4 412.99 68.26 415.17 69.18C414.266 69.6112 413.515 70.3092 413.02 71.18C412.785 71.6261 412.708 72.1382 412.801 72.6336C412.893 73.129 413.15 73.5787 413.53 73.91C415.64 75.45 418.53 71.31 420.8 72.52C422.05 73.18 422.4 75.16 423.8 75.36C424.345 75.3638 424.886 75.2725 425.4 75.09C426.303 74.9385 427.231 75.1363 427.994 75.6433C428.757 76.1502 429.299 76.9284 429.51 77.82C429.82 79.36 429.21 81.32 430.51 82.25C430.941 82.4722 431.416 82.5988 431.901 82.6212C432.386 82.6436 432.87 82.5614 433.32 82.38C433.428 83.8128 433.213 85.2516 432.69 86.59C433.997 87.2469 434.998 88.3852 435.483 89.7653C435.968 91.1455 435.899 92.6599 435.29 93.99C436.658 94.7528 437.866 95.7713 438.85 96.99C439.331 97.6125 439.629 98.3576 439.708 99.1406C439.788 99.9237 439.646 100.713 439.3 101.42C439.088 101.705 438.916 102.018 438.79 102.35C438.719 102.732 438.753 103.126 438.89 103.49C439.481 104.853 439.917 106.279 440.19 107.74C440.28 109.23 439.34 110.95 437.85 110.96C437.5 110.96 437.11 110.89 436.85 111.1C436.757 111.193 436.684 111.304 436.634 111.426C436.584 111.548 436.559 111.678 436.56 111.81C436.535 112.89 436.683 113.967 437 115C437.331 116.027 437.263 117.141 436.81 118.12C436.686 118.353 436.512 118.556 436.302 118.715C436.092 118.874 435.849 118.985 435.591 119.042C435.334 119.098 435.067 119.097 434.809 119.04C434.552 118.983 434.31 118.87 434.1 118.71C434.68 120.323 435.257 121.933 435.83 123.54C436.18 124.54 436.49 125.66 435.83 126.44C434.99 127.44 433.23 126.89 432.41 125.84C431.59 124.79 431.28 123.41 430.41 122.38C430.035 121.991 429.7 121.565 429.41 121.11C429.22 120.73 429.12 120.26 428.76 120.02C428.05 119.53 427.11 120.55 427.28 121.4C427.584 122.199 428.112 122.893 428.8 123.4C429.139 123.669 429.391 124.03 429.526 124.441C429.661 124.852 429.673 125.293 429.56 125.71C429.38 126.09 429.02 126.36 428.85 126.71C428.27 128.03 430.22 129.08 430.57 130.48C430.621 131.011 430.548 131.546 430.357 132.044C430.166 132.542 429.863 132.989 429.47 133.35C428.64 134.35 426.93 135.26 426.25 134.15C426.01 133.77 426.04 133.27 425.84 132.87C425.56 132.418 425.171 132.044 424.71 131.78C423.654 130.983 422.855 129.895 422.41 128.65C423.62 129.9 424.94 131.58 424.31 133.2C423.978 133.85 423.546 134.444 423.03 134.96C422.14 136.08 421.65 137.47 420.78 138.6C419.91 139.73 418.37 140.6 417.06 140.01C417.342 140.679 417.39 141.424 417.196 142.124C417.001 142.824 416.575 143.438 415.988 143.865C415.401 144.293 414.686 144.509 413.96 144.479C413.234 144.449 412.54 144.175 411.99 143.7C411.726 143.405 411.402 143.169 411.04 143.01C410.621 142.941 410.191 142.993 409.8 143.16C408.556 143.492 407.244 143.475 406.009 143.11C404.774 142.744 403.663 142.046 402.8 141.09L404.03 140.53C401.5 140.44 398.86 140.32 396.65 139.09C394.44 137.86 392.82 135.15 393.65 132.77C394.03 131.77 394.83 130.65 394.33 129.67C394.107 129.365 393.822 129.11 393.495 128.921C393.168 128.731 392.805 128.612 392.43 128.57L383.22 126.27C381.696 126.029 380.268 125.376 379.09 124.38C378.01 123.28 377.74 121.25 378.93 120.29C378.108 118.97 376.929 117.909 375.53 117.23C373.96 116.48 372.2 116.23 370.6 115.57C369 114.91 367.48 113.57 367.42 111.8C367.36 110.03 369.62 108.51 370.93 109.65C370.45 107.08 365.8 107.35 365.16 104.81C364.64 102.74 367.22 101.4 368.45 99.66C368.1 98.96 367.31 98.57 366.94 97.88C366.17 96.43 367.59 94.77 369 93.93C370.41 93.09 372.15 92.2 372.36 90.57C372.57 88.94 370.99 87.19 371.73 85.67C371.979 85.2653 372.373 84.9707 372.832 84.8463C373.291 84.7218 373.78 84.7768 374.2 85C375.11 81.89 380.96 83.62 382.34 80.69C382.463 80.4642 382.505 80.2031 382.46 79.95C382.398 79.7364 382.281 79.5431 382.12 79.39C381.304 78.7279 380.411 78.1671 379.46 77.72C378.988 77.4877 378.6 77.1148 378.349 76.6527C378.099 76.1906 377.997 75.6621 378.06 75.14C378.34 74.14 380.2 73.98 380.28 75.03C380.535 74.7891 380.842 74.6095 381.177 74.5049C381.512 74.4004 381.867 74.3736 382.214 74.4266C382.561 74.4796 382.892 74.6111 383.18 74.8109C383.469 75.0108 383.708 75.2738 383.88 75.58C384.252 75.1371 384.767 74.8373 385.336 74.7315C385.905 74.6257 386.493 74.7206 387 75C387.994 75.5699 388.837 76.3687 389.46 77.33" fill="#340920"/>
<path d="M407 108.44C405.57 104.26 402 101.16 398.2 98.91C396.652 97.8744 394.873 97.2356 393.02 97.05C392.095 96.9751 391.168 97.173 390.354 97.619C389.54 98.0651 388.875 98.7399 388.44 99.56L389.05 102.56C389.24 107.48 393.49 111.14 395.82 115.48C396.82 117.36 397.74 119.67 399.82 120.28C400.921 120.547 402.082 120.398 403.08 119.86C407.07 118 408.46 112.62 407 108.44Z" fill="#613B4F"/>
<path d="M410.13 130.94C411.229 128.903 411.577 126.544 411.115 124.276C410.653 122.008 409.409 119.975 407.6 118.53C409.09 116.04 407.98 112.66 405.87 110.68C403.76 108.7 400.87 107.78 398.12 106.92C395.81 100.53 387.81 96.92 381.48 99.33C377.4 94.77 370.04 94.95 364.48 97.42C363.163 98.1245 361.752 98.6364 360.29 98.94C359.194 99.01 358.095 99.01 357 98.94C351 98.94 345.65 103.88 344.08 109.69C343.898 110.637 343.588 111.556 343.16 112.42C342.411 113.439 341.534 114.357 340.55 115.15C339.59 116.128 338.852 117.302 338.386 118.591C337.921 119.88 337.738 121.254 337.85 122.62C338.06 124.93 339.12 127.28 338.43 129.49C338.08 130.6 337.32 131.56 337.08 132.7C336.41 136.01 340.34 138.77 340.08 142.14C340.08 142.82 339.82 143.49 339.72 144.14C339.533 145.538 339.852 146.957 340.62 148.14C341.22 149.05 342.09 149.83 342.29 150.9C342.346 151.723 342.292 152.551 342.13 153.36C341.99 155.36 347.22 162.36 349.05 163.19L399.66 157C401.515 156.319 403.112 155.076 404.229 153.445C405.345 151.814 405.926 149.876 405.89 147.9C405.779 147.252 405.855 146.586 406.11 145.98C406.455 145.541 406.883 145.174 407.37 144.9C410.37 142.72 410.2 138.2 409.37 134.57C409.224 134.067 409.167 133.543 409.2 133.02C409.364 132.27 409.681 131.562 410.13 130.94Z" fill="#340920"/>
<path d="M395.73 132.93C394.73 123.93 387.73 114.43 378.25 111.23C372.25 109.23 367.91 109.78 364.92 109.83C360.732 109.98 356.689 111.403 353.33 113.91C350.63 114.91 341.66 125.64 342.48 135.85C343.39 147.2 344.94 161.02 347.48 169.22C352.59 185.71 365.83 186 365.83 186L368.37 207.81L403.12 194.92L395.73 132.93Z" fill="#FFBF9D"/>
<path d="M372.35 163.07C372.143 162.22 371.635 161.474 370.92 160.97C370.265 160.498 369.473 160.256 368.666 160.282C367.859 160.307 367.084 160.598 366.46 161.11C365.814 161.701 365.339 162.454 365.082 163.291C364.825 164.128 364.797 165.018 365 165.87C365.414 166.355 365.927 166.746 366.505 167.015C367.083 167.284 367.712 167.426 368.35 167.43H368.95C369.949 167.338 370.877 166.874 371.55 166.13C371.909 165.716 372.169 165.224 372.307 164.693C372.446 164.163 372.461 163.607 372.35 163.07Z" fill="#FF9A6C"/>
<path d="M348.66 149.24C348.737 149.804 349.031 150.315 349.479 150.666C349.927 151.017 350.494 151.18 351.06 151.12C351.338 151.102 351.61 151.029 351.86 150.905C352.11 150.781 352.332 150.608 352.513 150.396C352.695 150.185 352.833 149.939 352.918 149.673C353.003 149.408 353.035 149.128 353.01 148.85C352.935 148.285 352.642 147.772 352.193 147.421C351.745 147.069 351.176 146.908 350.61 146.97C350.332 146.988 350.06 147.061 349.81 147.185C349.56 147.309 349.338 147.482 349.156 147.694C348.975 147.906 348.837 148.151 348.752 148.417C348.667 148.682 348.635 148.962 348.66 149.24Z" fill="#340920"/>
<path d="M347.21 141.78C347.52 142.02 348.98 140.58 351.31 140.25C353.64 139.92 355.52 140.84 355.73 140.52C355.83 140.37 355.49 139.9 354.67 139.47C353.561 138.913 352.307 138.714 351.08 138.9C349.869 139.071 348.744 139.625 347.87 140.48C347.23 141.13 347.06 141.67 347.21 141.78Z" fill="#340920"/>
<path d="M363.48 158.21C362.197 158.008 360.894 157.961 359.6 158.07C358.99 158.07 358.41 158.07 358.26 157.67C358.117 157.064 358.165 156.427 358.4 155.85C358.75 154.33 359.12 152.74 359.51 151.07C361.02 144.27 362.03 138.72 361.75 138.66C361.47 138.6 360.03 144.06 358.51 150.86C358.15 152.53 357.81 154.13 357.51 155.65C357.23 156.419 357.23 157.261 357.51 158.03C357.627 158.227 357.786 158.394 357.977 158.521C358.167 158.647 358.384 158.729 358.61 158.76C358.942 158.798 359.278 158.798 359.61 158.76C360.918 158.736 362.218 158.552 363.48 158.21Z" fill="#340920"/>
<path d="M365.83 186C373.793 184.979 381.316 181.766 387.56 176.72C387.56 176.72 383.56 190.15 366.41 191L365.83 186Z" fill="#FF9A6C"/>
<path d="M370.56 158.84C370.18 158.84 370.56 161.4 368.63 163.5C366.7 165.6 364 165.72 364.03 166.07C364.03 166.24 364.7 166.48 365.84 166.34C367.323 166.152 368.691 165.443 369.7 164.34C370.675 163.283 371.199 161.887 371.16 160.45C371.1 159.38 370.73 158.8 370.56 158.84Z" fill="#340920"/>
<path d="M346.9 132.92C347.37 133.43 349.1 132.8 351.21 132.67C353.32 132.54 355.12 132.84 355.5 132.27C355.67 131.99 355.36 131.47 354.56 131C353.468 130.444 352.244 130.198 351.022 130.29C349.8 130.381 348.627 130.807 347.63 131.52C346.91 132.11 346.69 132.67 346.9 132.92Z" fill="#340920"/>
<path d="M373.63 146.4C373.696 146.966 373.538 147.536 373.191 147.987C372.844 148.439 372.334 148.738 371.77 148.82C371.496 148.872 371.214 148.868 370.941 148.809C370.669 148.75 370.41 148.637 370.182 148.477C369.954 148.316 369.76 148.112 369.612 147.876C369.464 147.639 369.364 147.375 369.32 147.1C369.254 146.534 369.411 145.964 369.759 145.513C370.106 145.061 370.616 144.762 371.18 144.68C371.454 144.628 371.736 144.632 372.008 144.691C372.281 144.75 372.539 144.863 372.768 145.023C372.996 145.184 373.19 145.388 373.338 145.624C373.486 145.861 373.585 146.125 373.63 146.4Z" fill="#340920"/>
<path d="M379.2 138.12C378.96 138.43 377.2 137.38 374.85 137.64C372.5 137.9 370.92 139.24 370.63 138.98C370.49 138.87 370.72 138.33 371.4 137.7C372.34 136.893 373.507 136.397 374.74 136.28C375.955 136.145 377.181 136.401 378.24 137.01C379 137.49 379.32 138 379.2 138.12Z" fill="#340920"/>
<path d="M378.74 130.21C378.33 130.79 376.47 130.43 374.3 130.64C372.13 130.85 370.3 131.42 369.85 130.91C369.63 130.66 369.85 130.09 370.61 129.51C371.641 128.765 372.861 128.329 374.13 128.25C375.389 128.132 376.655 128.375 377.78 128.95C378.6 129.41 378.91 129.93 378.74 130.21Z" fill="#340920"/>
<path d="M395.24 149.31C395.06 148.06 396.09 144.88 397.3 144.51C400.54 143.51 406.55 142.93 407.82 151.34C409.55 162.83 397.65 162.19 397.58 161.87C397.51 161.55 395.85 153.65 395.24 149.31Z" fill="#FFBF9D"/>
<path d="M400.12 157.19C400.12 157.19 400.34 157.3 400.7 157.41C401.207 157.542 401.746 157.471 402.2 157.21C403.35 156.58 404.08 154.5 403.83 152.42C403.705 151.431 403.364 150.482 402.83 149.64C402.667 149.297 402.424 148.999 402.121 148.771C401.818 148.543 401.464 148.392 401.09 148.33C400.849 148.297 400.605 148.353 400.402 148.488C400.2 148.622 400.053 148.825 399.99 149.06C399.88 149.4 399.99 149.62 399.93 149.65C399.87 149.68 399.66 149.49 399.68 149C399.698 148.708 399.818 148.432 400.02 148.22C400.158 148.075 400.324 147.959 400.508 147.88C400.692 147.801 400.89 147.76 401.09 147.76C401.574 147.781 402.045 147.926 402.456 148.182C402.868 148.438 403.207 148.795 403.44 149.22C404.085 150.139 404.491 151.205 404.62 152.32C404.9 154.65 404.04 157 402.45 157.73C402.157 157.87 401.835 157.943 401.51 157.943C401.185 157.943 400.864 157.87 400.57 157.73C400.18 157.47 400.08 157.22 400.12 157.19Z" fill="#FF9A6C"/>
<path d="M339.88 136.39C341.99 134.6 343.19 132.39 342.66 129.7C344.26 129.93 345.54 127.7 346.25 126.26C346.96 124.82 347.97 123.97 347.67 122.37C347.575 122.043 347.575 121.697 347.67 121.37C347.84 120.9 348.37 120.68 348.82 120.46C349.988 119.886 350.994 119.029 351.747 117.967C352.5 116.905 352.975 115.672 353.13 114.38C355.765 115.101 358.537 115.159 361.2 114.55C361.925 115.333 362.837 115.919 363.851 116.252C364.864 116.585 365.946 116.655 366.994 116.455C368.042 116.255 369.022 115.792 369.842 115.108C370.662 114.425 371.294 113.545 371.68 112.55C372.17 113.195 372.791 113.727 373.504 114.112C374.216 114.496 375.002 114.724 375.81 114.78C377.426 114.872 379.046 114.727 380.62 114.35C380.546 115.953 381.054 117.529 382.05 118.788C383.046 120.046 384.463 120.903 386.04 121.2C386.476 121.204 386.893 121.38 387.2 121.69C387.287 121.896 387.332 122.117 387.332 122.34C387.332 122.563 387.287 122.784 387.2 122.99C387.076 123.684 387.093 124.396 387.251 125.083C387.408 125.771 387.702 126.419 388.115 126.991C388.529 127.562 389.053 128.044 389.657 128.408C390.261 128.772 390.932 129.011 391.63 129.11C391.251 129.56 390.978 130.09 390.832 130.66C390.687 131.23 390.671 131.825 390.787 132.402C390.904 132.979 391.149 133.522 391.504 133.991C391.859 134.459 392.316 134.842 392.84 135.11C393.3 135.3 393.89 135.52 393.89 136.02C393.876 136.206 393.814 136.385 393.71 136.54C392.911 137.75 392.471 139.161 392.44 140.61C392.54 142.04 393.73 143.5 395.16 143.36C394.799 143.716 394.516 144.141 394.327 144.611C394.137 145.08 394.047 145.584 394.06 146.09C394.18 147.09 395.34 147.96 396.22 147.47C396.6 147.26 402.16 145.31 402.37 144.94C404.99 140.05 400.2 135.75 399.09 130.32C397.875 124.886 395.413 119.809 391.9 115.49C390.5 113.616 388.859 111.935 387.02 110.49C384.837 108.977 382.488 107.719 380.02 106.74C376.85 105.34 373.6 103.96 370.16 103.66C363.74 103.08 357.61 106.26 352.16 109.76C350.058 111.025 348.134 112.565 346.44 114.34C344.569 116.607 343.119 119.191 342.16 121.97C340.488 125.878 339.644 130.09 339.68 134.34" fill="#340920"/>
<path d="M337 132.68C337.08 132.219 337.232 131.774 337.45 131.36C337.64 130.94 337.92 130.45 338.16 129.83C338.433 129.116 338.549 128.352 338.5 127.59C338.429 126.632 338.279 125.683 338.05 124.75C337.766 123.629 337.632 122.476 337.65 121.32C337.716 119.985 338.057 118.678 338.65 117.48C338.978 116.828 339.377 116.214 339.84 115.65C340.351 115.059 340.906 114.507 341.5 114C342.108 113.507 342.628 112.915 343.04 112.25C343.399 111.514 343.662 110.734 343.82 109.93C344.255 108.199 344.99 106.558 345.99 105.08C347.054 103.486 348.412 102.108 349.99 101.02C350.808 100.448 351.687 99.9685 352.61 99.59C353.575 99.2107 354.582 98.9489 355.61 98.81C356.12 98.74 356.61 98.74 357.17 98.72C357.73 98.7 358.22 98.72 358.75 98.78C359.792 98.8517 360.838 98.7053 361.82 98.35C362.82 98 363.82 97.48 364.82 97.07C365.85 96.6475 366.914 96.313 368 96.07C369.104 95.8086 370.228 95.638 371.36 95.56C372.519 95.5003 373.681 95.5505 374.83 95.71C377.202 96.0242 379.415 97.0733 381.16 98.71L381.67 99.22H381.48C384.739 98.1039 388.302 98.279 391.436 99.7094C394.571 101.14 397.037 103.717 398.33 106.91L398.23 106.81C399.705 107.238 401.151 107.759 402.56 108.37C403.941 108.957 405.199 109.799 406.27 110.85C407.29 111.889 408.003 113.191 408.33 114.61C408.667 115.965 408.47 117.397 407.78 118.61V118.42C409.555 119.802 410.789 121.762 411.27 123.96C411.741 125.914 411.605 127.965 410.88 129.84C410.714 130.272 410.514 130.69 410.28 131.09C410.05 131.48 409.81 131.85 409.63 132.23C409.449 132.6 409.363 133.009 409.38 133.42C409.417 133.821 409.484 134.219 409.58 134.61C409.89 136.052 410.031 137.525 410 139C410.002 140.195 409.774 141.38 409.33 142.49C408.994 143.304 408.473 144.03 407.81 144.61C407.27 145.08 406.76 145.31 406.5 145.56C406.364 145.685 406.24 145.822 406.13 145.97C406.211 145.801 406.326 145.651 406.47 145.53C406.73 145.26 407.23 145.02 407.75 144.53C408.389 143.949 408.888 143.231 409.21 142.43C409.633 141.333 409.843 140.166 409.83 138.99C409.822 137.528 409.644 136.071 409.3 134.65C409.198 134.25 409.127 133.842 409.09 133.43C409.071 132.985 409.16 132.542 409.35 132.14C409.548 131.75 409.765 131.369 410 131C411.217 128.879 411.551 126.365 410.93 124C410.458 121.868 409.256 119.968 407.53 118.63L407.42 118.56L407.49 118.44C408.146 117.276 408.325 115.903 407.99 114.61C407.667 113.249 406.975 112.003 405.99 111.01C404.942 109.991 403.715 109.174 402.37 108.6C400.97 108.001 399.534 107.49 398.07 107.07H397.99V106.99C396.721 103.886 394.315 101.384 391.263 99.9956C388.211 98.6071 384.743 98.4369 381.57 99.52H381.47L381.38 99.43L380.89 98.94C379.196 97.349 377.044 96.331 374.74 96.03C373.618 95.8684 372.482 95.8215 371.35 95.89C370.237 95.9595 369.133 96.1269 368.05 96.39C366.98 96.6341 365.933 96.9687 364.92 97.39C363.92 97.8 362.92 98.32 361.92 98.67C361.406 98.8594 360.873 98.9935 360.33 99.07C359.796 99.1315 359.257 99.1482 358.72 99.12C358.19 99.12 357.67 99.06 357.16 99.05C356.652 99.0531 356.144 99.0865 355.64 99.15C354.646 99.2723 353.671 99.5209 352.74 99.89C351.837 100.261 350.975 100.727 350.17 101.28C347.184 103.379 345.041 106.469 344.12 110C343.956 110.827 343.68 111.627 343.3 112.38C342.876 113.072 342.339 113.687 341.71 114.2C341.13 114.677 340.592 115.202 340.1 115.77C339.644 116.317 339.251 116.914 338.93 117.55C338.347 118.72 338.007 119.995 337.93 121.3C337.895 122.441 338.017 123.582 338.29 124.69C338.515 125.633 338.659 126.593 338.72 127.56C338.757 128.338 338.627 129.116 338.34 129.84C338.08 130.46 337.79 130.95 337.59 131.36C337.431 131.682 337.297 132.017 337.19 132.36C337.137 132.473 337.074 132.58 337 132.68Z" fill="#613B4F"/>
<path d="M375.72 97.57C375.72 97.57 375.39 97.43 374.79 97.24C373.948 96.9659 373.065 96.8374 372.18 96.86C370.873 96.8854 369.596 97.2582 368.48 97.94C367.123 98.7951 366.072 100.059 365.48 101.55C365.299 101.994 365.169 102.457 365.09 102.93C365.044 103.137 365.043 103.351 365.088 103.559C365.133 103.766 365.222 103.961 365.35 104.13L365.68 104.48L365.2 104.42C363.958 104.258 362.702 104.588 361.7 105.34C360.907 105.947 360.329 106.791 360.05 107.75C359.855 108.398 359.794 109.078 359.87 109.75C359.914 109.985 359.944 110.222 359.96 110.46C359.96 110.46 359.96 110.46 359.89 110.29C359.823 110.119 359.776 109.941 359.75 109.76C359.606 108.904 359.694 108.024 360.006 107.213C360.317 106.403 360.84 105.69 361.52 105.15C362.044 104.744 362.644 104.447 363.284 104.275C363.925 104.104 364.593 104.061 365.25 104.15L365.1 104.44C364.935 104.233 364.818 103.992 364.758 103.734C364.697 103.477 364.694 103.209 364.75 102.95C364.828 102.449 364.966 101.959 365.16 101.49C365.777 99.9294 366.887 98.6128 368.32 97.74C369.295 97.1578 370.389 96.8049 371.52 96.7079C372.652 96.6108 373.79 96.7723 374.85 97.18C375.077 97.2684 375.297 97.372 375.51 97.49C375.65 97.51 375.72 97.55 375.72 97.57Z" fill="#613B4F"/>
<path d="M396.25 108.15C396.25 108.15 396.15 108.33 395.91 108.62C395.554 109.019 395.159 109.381 394.73 109.7C394.084 110.193 393.335 110.534 392.54 110.7C391.516 110.927 390.445 110.759 389.54 110.23L389.79 110.16L389.52 110.68L389.19 111.19C388.508 112.126 387.604 112.879 386.56 113.38C385.72 113.797 384.806 114.045 383.87 114.11C383.245 114.17 382.614 114.133 382 114C381.774 113.954 381.555 113.876 381.35 113.77C382.174 113.921 383.014 113.972 383.85 113.92C384.747 113.821 385.619 113.556 386.42 113.14C387.404 112.647 388.255 111.923 388.9 111.03C389.012 110.876 389.116 110.716 389.21 110.55L389.47 110.06L389.56 109.89L389.72 109.99C390.547 110.47 391.522 110.63 392.46 110.44C393.222 110.293 393.945 109.986 394.58 109.54C395.69 108.76 396.21 108.1 396.25 108.15Z" fill="#613B4F"/>
<path d="M403.84 118C403.852 118.073 403.852 118.147 403.84 118.22C403.813 118.425 403.752 118.625 403.66 118.81C403.306 119.502 402.707 120.037 401.98 120.31C400.903 120.663 399.746 120.698 398.65 120.41C398.001 120.295 397.36 120.141 396.73 119.95C396.005 119.768 395.367 119.336 394.93 118.73L394.84 118.55H395.12C394.209 119.545 393.154 120.398 391.99 121.08C391.024 121.633 389.923 121.907 388.81 121.87C388.061 121.847 387.33 121.63 386.69 121.24C386.517 121.134 386.356 121.01 386.21 120.87C386.12 120.78 386.07 120.72 386.08 120.71C386.09 120.7 386.31 120.89 386.76 121.12C387.396 121.45 388.103 121.622 388.82 121.62C389.875 121.62 390.911 121.337 391.82 120.8C392.934 120.114 393.944 119.272 394.82 118.3L394.98 118.13L395.1 118.35L395.18 118.49C395.575 119.028 396.143 119.414 396.79 119.58C397.41 119.78 398.06 119.91 398.66 120.05C399.7 120.343 400.8 120.343 401.84 120.05C402.529 119.815 403.114 119.344 403.49 118.72C403.627 118.491 403.744 118.25 403.84 118Z" fill="#613B4F"/>
<path d="M410.37 75.13C410.37 75.13 410.17 75.13 409.84 75.3C409.362 75.5142 408.956 75.8614 408.67 76.3C408.231 76.9933 408.034 77.8128 408.11 78.63C408.251 79.6909 408.548 80.7253 408.99 81.7L409.06 81.88H408.87C407.441 82.0456 406.104 82.6702 405.06 83.66C404.47 84.2066 404.016 84.8839 403.734 85.6376C403.453 86.3912 403.352 87.2003 403.44 88C403.51 88.7298 403.747 89.4337 404.132 90.0577C404.517 90.6817 405.04 91.2093 405.66 91.6L406.09 91.85L405.6 91.91C404.779 92.0255 403.991 92.31 403.285 92.7454C402.579 93.1809 401.971 93.7579 401.5 94.44C400.747 95.535 400.394 96.8555 400.5 98.18C400.57 99.0539 400.826 99.9027 401.25 100.67C401.54 101.21 401.77 101.47 401.74 101.48C401.71 101.49 401.68 101.43 401.57 101.31C401.411 101.131 401.27 100.937 401.15 100.73C400.675 99.9631 400.38 99.0978 400.29 98.2C400.13 96.8233 400.463 95.4344 401.23 94.28C401.718 93.5561 402.351 92.9421 403.09 92.4771C403.829 92.0122 404.656 91.7066 405.52 91.58L405.46 91.89C404.79 91.4776 404.226 90.9151 403.811 90.2469C403.396 89.5787 403.142 88.8231 403.07 88.04C402.962 87.1659 403.075 86.2787 403.4 85.46C403.722 84.7053 404.195 84.0246 404.79 83.46C405.887 82.4281 407.292 81.7851 408.79 81.63L408.66 81.83C408.221 80.8225 407.941 79.7532 407.83 78.66C407.762 77.7995 407.992 76.9417 408.48 76.23C408.789 75.7685 409.237 75.4181 409.76 75.23C409.893 75.1842 410.03 75.154 410.17 75.14L410.37 75.13Z" fill="#613B4F"/>
<path d="M434.43 97.17C434.377 97.2206 434.32 97.2674 434.26 97.31C434.13 97.38 433.96 97.52 433.72 97.65C433.016 98.042 432.257 98.3284 431.47 98.5C430.265 98.7785 429.016 98.8058 427.8 98.58C426.23 98.3134 424.764 97.6216 423.56 96.58L423.82 96.52C423.406 97.536 422.772 98.4473 421.962 99.1876C421.153 99.9279 420.189 100.479 419.14 100.8C418.012 101.121 416.812 101.078 415.709 100.677C414.607 100.277 413.659 99.5397 413 98.57H413.29C413.118 99.3727 412.735 100.115 412.18 100.72C411.687 101.263 411.101 101.714 410.45 102.05C409.373 102.576 408.198 102.872 407 102.92C406.226 102.954 405.451 102.938 404.68 102.87C404.405 102.853 404.131 102.819 403.86 102.77C404.136 102.744 404.414 102.744 404.69 102.77C405.22 102.77 406 102.77 406.98 102.77C408.144 102.697 409.28 102.387 410.32 101.86C410.976 101.537 411.553 101.074 412.011 100.504C412.469 99.934 412.796 99.2704 412.97 98.56L413.06 98.15L413.27 98.5C413.901 99.4062 414.799 100.093 415.838 100.464C416.878 100.835 418.008 100.872 419.07 100.57C420.068 100.261 420.986 99.7363 421.758 99.033C422.531 98.3296 423.139 97.4648 423.54 96.5L423.62 96.3L423.79 96.44C424.948 97.4567 426.357 98.147 427.87 98.44C429.052 98.6713 430.268 98.6713 431.45 98.44C432.502 98.1701 433.507 97.7418 434.43 97.17Z" fill="#613B4F"/>
<path d="M424.74 115.71C424.721 115.794 424.684 115.873 424.63 115.94C424.469 116.125 424.257 116.257 424.02 116.32C423.161 116.515 422.267 116.491 421.42 116.25C420.144 115.943 418.997 115.243 418.14 114.25C417.104 113.005 416.572 111.418 416.65 109.8L416.93 109.95C415.596 110.853 414.009 111.305 412.4 111.24C411.103 111.194 409.834 110.852 408.69 110.24C407.924 109.831 407.221 109.316 406.6 108.71C406.357 108.507 406.148 108.268 405.98 108C406.835 108.783 407.786 109.455 408.81 110C409.928 110.567 411.157 110.878 412.41 110.91C413.945 110.95 415.454 110.514 416.73 109.66L417.01 109.46V109.85C416.933 111.244 417.335 112.622 418.15 113.756C418.965 114.89 420.144 115.71 421.49 116.08C422.3 116.323 423.154 116.382 423.99 116.25C424.298 116.169 424.565 115.976 424.74 115.71Z" fill="#613B4F"/>
<path d="M385.27 79.1C385.053 80.2935 385.053 81.5165 385.27 82.71C385.544 84.139 386.21 85.4636 387.193 86.5356C388.177 87.6076 389.44 88.3847 390.84 88.78C391.725 89.0432 392.649 89.1482 393.57 89.09H393.78V89.3C393.412 91.569 393.825 93.8957 394.95 95.9C395.131 96.2488 395.338 96.5831 395.57 96.9C395.643 97.0129 395.742 97.107 395.859 97.1748C395.975 97.2425 396.106 97.282 396.24 97.29C396.324 97.2897 396.408 97.2707 396.484 97.2344C396.56 97.1981 396.627 97.1454 396.68 97.08C396.714 97.0292 396.744 96.9757 396.77 96.92C396.77 96.92 396.77 96.99 396.77 97.11C396.717 97.194 396.646 97.2641 396.56 97.3146C396.475 97.365 396.379 97.3943 396.28 97.4C396.125 97.4039 395.971 97.3716 395.83 97.3056C395.69 97.2397 395.566 97.1419 395.47 97.02C395.216 96.7058 394.989 96.3713 394.79 96.02C393.57 93.9916 393.103 91.5984 393.47 89.26L393.65 89.45C392.689 89.5191 391.724 89.4141 390.8 89.14C389.199 88.6715 387.777 87.7304 386.72 86.44C386.004 85.5538 385.48 84.5274 385.184 83.4269C384.888 82.3264 384.825 81.1762 385 80.05C385.047 79.8101 385.107 79.5731 385.18 79.34C385.199 79.2562 385.229 79.1754 385.27 79.1Z" fill="#613B4F"/>
<path d="M352.33 434.18L390.49 427.27C390.49 427.27 410.34 463.74 417.49 463.15L406.74 388.66L346.86 397L352.33 434.18Z" fill="#613B4F"/>
<path d="M383.94 404.7C384.055 403.952 384.442 403.273 385.027 402.793C385.612 402.313 386.354 402.067 387.11 402.1C387.861 402.183 388.552 402.553 389.038 403.132C389.524 403.711 389.768 404.455 389.72 405.21C389.56 406.72 387.83 408.21 386.35 407.95C384.87 407.69 383.48 405.83 384 404.41" fill="#DACAD2"/>
<path d="M408.28 388.71L402.48 389.51L413.26 461.08C413.26 461.08 415.19 464.19 417.47 463.48L408.28 388.71Z" fill="#DACAD2"/>
<path d="M390.29 428.53C390.65 428.46 390.55 426.62 391.46 424.66C392.37 422.7 393.77 421.53 393.58 421.22C393.39 420.91 391.36 421.75 390.3 424.14C389.24 426.53 390 428.66 390.29 428.53Z" fill="#340920"/>
<path d="M394.65 435.88C395.01 435.88 395.4 434.24 396.76 432.79C398.12 431.34 399.7 430.74 399.63 430.38C399.56 430.02 397.47 430.08 395.82 431.93C394.17 433.78 394.3 435.92 394.65 435.88Z" fill="#340920"/>
<path d="M404.64 439C404.64 438.66 402.78 438.42 400.92 439.64C399.06 440.86 398.52 442.64 398.84 442.79C399.16 442.94 400.08 441.69 401.62 440.71C403.16 439.73 404.65 439.33 404.64 439Z" fill="#340920"/>
<path d="M384.79 429.91C385.07 429.67 384.1 428.2 383.63 426.17C383.16 424.14 383.32 422.4 382.97 422.31C382.62 422.22 381.81 424.09 382.39 426.47C382.97 428.85 384.57 430.17 384.79 429.91Z" fill="#340920"/>
<path d="M352.33 341.39C350.91 341 296.95 393.05 286.68 405.83C276.2 418.83 287.02 435.83 294.79 435.97C310.79 436.33 386.51 431.41 386.51 431.41L378.6 396.41L408.83 386.23L381.83 336.79L352.33 341.39Z" fill="#340920"/>
<g opacity="0.3">
<path d="M337.62 356.17L335.62 358.31C335.62 358.31 371.25 395.68 382.18 395.17L399.67 389.24L340.5 352.93L337.62 356.17Z" fill="#110009"/>
</g>
<path d="M378.81 397.29C378.87 397.51 365.9 401.51 349.81 406.23C333.72 410.95 320.68 414.6 320.61 414.38C320.54 414.16 333.51 410.16 349.61 405.44C365.71 400.72 378.74 397.07 378.81 397.29Z" fill="#340920"/>
<path d="M301.18 401.14L313.27 439.47C313.27 439.47 278.37 464.62 279.91 471.92L355.06 451.16L338.69 390.67L301.18 401.14Z" fill="#613B4F"/>
<path d="M335.6 429.79C336.385 429.81 337.134 430.119 337.705 430.658C338.275 431.197 338.626 431.928 338.69 432.71C338.697 433.493 338.405 434.248 337.873 434.823C337.341 435.397 336.611 435.746 335.83 435.8C334.27 435.8 332.47 434.25 332.57 432.69C332.67 431.13 334.38 429.46 335.91 429.81" fill="#DACAD2"/>
<path d="M355.55 452.73L354 446.87L281.85 467.29C281.85 467.29 278.91 469.67 279.94 471.92L355.55 452.73Z" fill="#DACAD2"/>
<path d="M311.94 439.42C312.06 439.78 313.94 439.42 316.07 440.12C318.2 440.82 319.59 442.12 319.88 441.84C320.17 441.56 319.05 439.64 316.45 438.84C313.85 438.04 311.77 439.11 311.94 439.42Z" fill="#340920"/>
<path d="M305 444.86C305 445.24 306.78 445.42 308.45 446.63C310.12 447.84 310.94 449.38 311.3 449.26C311.66 449.14 311.3 447.01 309.21 445.54C307.12 444.07 304.87 444.51 305 444.86Z" fill="#340920"/>
<path d="M303.09 455.53C303.44 455.53 303.45 453.53 301.95 451.79C300.45 450.05 298.52 449.71 298.44 450.06C298.36 450.41 299.73 451.19 300.94 452.65C302.15 454.11 302.71 455.59 303.09 455.53Z" fill="#340920"/>
<path d="M310.16 430.38C310.4 430.67 311.95 429.7 314.06 429.27C316.17 428.84 317.97 429.04 318.06 428.68C318.15 428.32 316.24 427.43 313.76 427.97C311.28 428.51 309.9 430.14 310.16 430.38Z" fill="#340920"/>
<g opacity="0.3">
<path d="M354.43 433.8L350.98 420.21L354.42 418.61L333.4 361.38L329.39 364.87L345.91 417.29L350.09 432.78L354.43 433.8Z" fill="#110009"/>
</g>
<path d="M306 296.71C301.922 295.835 297.705 295.835 293.626 296.708C289.548 297.582 285.702 299.311 282.34 301.78C276.7 306.02 271.99 312.78 273.51 323.49C276.9 347.22 307.23 428.23 307.23 428.23L349.23 415.61C349.47 415.54 349.71 414.85 349.58 415.06C349.23 415.61 328.29 348.13 328.82 348.92C329.35 349.71 371.16 383.48 388.53 389.68C406.37 396.06 424.02 388.43 432.53 376.55C436.6 370.86 445.98 340.79 427.39 315.97L392.65 322.51C392.65 322.51 310.38 297.95 309.16 297.51C308.124 297.178 307.069 296.911 306 296.71Z" fill="#340920"/>
<path d="M434.12 375.72C434.12 375.72 433.96 376 433.61 376.52C433.088 377.294 432.521 378.035 431.91 378.74C429.498 381.43 426.713 383.761 423.64 385.66C418.766 388.785 413.298 390.869 407.58 391.78C403.987 392.364 400.327 392.414 396.72 391.93C392.641 391.434 388.677 390.244 385 388.41C383 387.56 381.12 386.41 379.1 385.41C377.08 384.41 375.1 383.14 373.1 381.87C369.1 379.38 364.94 376.68 360.74 373.74C352.32 367.9 343.48 361.31 334.33 354.03L330.9 351.25L329.18 349.81L328.73 349.4L328.5 349.18C328.65 349.18 328.1 349 328.81 349.28C329.36 348.7 328.96 348.99 329.09 348.93V349.05L329.39 350.11L332.09 358.83C333.943 364.71 335.846 370.73 337.8 376.89C341.72 389.2 345.8 402.05 350.06 415.34L350.18 415.73L349.8 415.85L307.29 428.64L306.92 428.75L306.79 428.39C304.08 421.12 301.26 413.39 298.45 405.54C292.36 388.54 286.58 371.78 281.45 355.48C278.89 347.34 276.51 339.29 274.61 331.28C274.38 330.28 274.11 329.28 273.91 328.28C273.71 327.28 273.54 326.28 273.36 325.28C272.943 323.281 272.746 321.242 272.77 319.2C272.772 315.133 273.942 311.152 276.14 307.73C280.58 301.02 288.04 297.08 295.44 296.06C299.105 295.548 302.832 295.707 306.44 296.53L309.1 297.2L311.65 297.96L316.71 299.47L354 310.53L407.81 326.65L422.43 331.08L426.22 332.25C427.08 332.52 427.51 332.67 427.51 332.67C427.51 332.67 427.06 332.57 426.2 332.33L422.38 331.24L407.7 327L353.8 311.12L316.58 300.12L311.52 298.63L308.96 297.87L306.39 297.23C302.857 296.427 299.207 296.278 295.62 296.79C288.4 297.79 281.12 301.67 276.85 308.15C274.736 311.455 273.615 315.297 273.62 319.22C273.595 321.219 273.79 323.214 274.2 325.17C274.39 326.17 274.57 327.17 274.75 328.17C274.93 329.17 275.22 330.17 275.45 331.17C277.35 339.17 279.73 347.17 282.3 355.3C287.4 371.58 293.2 388.3 299.3 405.3C302.11 413.14 304.93 420.88 307.63 428.14L307.12 427.89L349.64 415.12L349.37 415.63C345.15 402.33 341.06 389.47 337.15 377.16L331.45 359C330.54 356.06 329.65 353.15 328.76 350.27L328.46 349.18V349.02C328.58 348.92 328.16 349.15 328.73 348.55C329.47 348.86 328.96 348.66 329.14 348.74L329.33 348.9L329.7 349.24L331.4 350.67L334.82 353.45C343.94 360.74 352.75 367.35 361.15 373.21C365.33 376.15 369.45 378.86 373.45 381.36C375.45 382.63 377.45 383.75 379.39 384.91C381.33 386.07 383.28 387.08 385.25 387.91C388.875 389.743 392.789 390.938 396.82 391.44C400.385 391.938 404.004 391.907 407.56 391.35C413.248 390.466 418.693 388.424 423.56 385.35C426.628 383.482 429.424 381.201 431.87 378.57C432.487 377.878 433.068 377.153 433.61 376.4C433.92 376 434.12 375.72 434.12 375.72Z" fill="#613B4F"/>
<path d="M309.59 330.34C310.832 330.812 312.006 331.448 313.08 332.23C315.766 333.967 318.284 335.952 320.6 338.16C322.928 340.364 325.016 342.807 326.83 345.45C327.636 346.51 328.289 347.678 328.77 348.92C327.895 347.934 327.09 346.888 326.36 345.79C324.434 343.297 322.317 340.957 320.03 338.79C317.737 336.617 315.306 334.596 312.75 332.74C311.638 332.02 310.582 331.218 309.59 330.34Z" fill="#340920"/>
<path d="M323.92 325.66C324.567 326.64 325.078 327.703 325.44 328.82C326.467 331.449 327.29 334.154 327.9 336.91C328.52 339.661 328.921 342.456 329.1 345.27C329.261 346.434 329.261 347.616 329.1 348.78C328.84 348.78 328.57 343.47 327.1 337.09C325.63 330.71 323.68 325.76 323.92 325.66Z" fill="#340920"/>
<path d="M292.27 278.66C290.972 277.224 289.193 276.314 287.27 276.1L265.57 272.46L242.57 261.61L233.71 271.31L255.49 281.17C256.571 281.806 257.459 282.725 258.056 283.828C258.653 284.931 258.938 286.177 258.88 287.43C258.88 292.13 259.29 299.26 262.07 302.13C269.64 309.97 278.86 311.84 283.07 310.64C287.28 309.44 297.62 302.53 297.34 295C297.18 289 295.79 282.51 292.27 278.66ZM289.27 296.77C287.82 298.947 285.751 300.64 283.33 301.63C279.7 303.28 275.61 303.91 271.91 302.48C269.908 301.65 268.158 300.309 266.837 298.591C265.515 296.873 264.668 294.838 264.38 292.69C264.144 291.095 264.309 289.466 264.86 287.95C265.16 285.95 266.52 283.77 268.1 283.18C269.746 282.559 271.503 282.287 273.26 282.38C276.585 282.62 279.89 283.092 283.15 283.79C285.87 284.42 288.83 285.59 290.15 288.53C290.646 289.881 290.82 291.33 290.659 292.76C290.497 294.19 290.005 295.563 289.22 296.77H289.27Z" fill="#DF1683"/>
<path d="M303.49 217.12C303.49 217.12 295.58 207.53 291.79 205.77C288 204.01 271.65 204 271.65 204C271.65 204 269.01 207.08 272.79 208.84C276.57 210.6 282.38 209.98 284.58 211.57C286.78 213.16 285.99 219.83 291.44 223C292.998 223.932 294.726 224.545 296.524 224.803C298.322 225.06 300.152 224.957 301.91 224.5L303.49 217.12Z" fill="#FFBF9D"/>
<path d="M244.2 240.66C242.51 240.66 157.11 268.77 157.11 268.77L159.81 271.82C165.4 278.13 173.21 280.73 180.69 278.75L236.27 264.37L241.8 257.15L241.51 254.25L251.14 249.74L244.2 240.66Z" fill="#DACAD2"/>
<path d="M244.2 240.66C244.2 240.66 244.36 240.84 244.67 241.23L246 243C247.2 244.56 248.95 246.82 251.21 249.72L251.3 249.84L251.16 249.9L241.54 254.45L241.63 254.29C241.73 255.17 241.83 256.16 241.94 257.18V257.25V257.3L236.43 264.54V264.59H236.37L205.25 272.69L187 277.38L182.24 278.61C180.629 279.101 178.975 279.436 177.3 279.61C173.865 279.888 170.417 279.261 167.3 277.79C165.176 276.808 163.222 275.495 161.51 273.9C159.81 272.33 158.41 270.58 156.95 268.97L156.68 268.67L157.06 268.55C181.63 260.48 203.38 253.41 219.06 248.4C226.88 245.9 233.16 243.92 237.5 242.59C239.67 241.92 241.36 241.43 242.5 241.1C243.06 240.93 243.5 240.84 243.82 240.77L244.26 240.69L243.81 240.82C243.52 240.91 243.09 241.01 242.52 241.2L237.52 242.77L219.13 248.77L157.19 269L157.3 268.58C158.77 270.2 160.18 271.96 161.83 273.48C163.503 275.039 165.413 276.322 167.49 277.28C170.539 278.716 173.911 279.329 177.27 279.06C178.912 278.887 180.535 278.569 182.12 278.11L186.88 276.88L205.07 272.18L236.22 264.18L236.12 264.25L241.67 257.04V257.15C241.57 256.15 241.48 255.15 241.39 254.26V254.15H241.49L251.14 249.68V249.86L246 243.06L244.68 241.28L244.2 240.66Z" fill="#340920"/>
<path d="M370.68 199.89C370.68 199.89 356.91 196.69 351.68 202.24C346.45 207.79 329.24 251.38 329.24 251.38L303.5 217.12L293 233.81C293 233.81 310.15 270.21 317.38 278.72C320.319 282.219 324.205 284.795 328.573 286.138C332.941 287.481 337.603 287.534 342 286.29C347.08 284.79 353.77 271.79 353.77 271.79L370.68 199.89Z" fill="#FFBF9D"/>
<path d="M286.05 209.78C281.96 208.12 272.64 208.94 264.49 215.9C261.49 218.44 260.25 225.2 259.92 229.9C259.899 231.083 259.529 232.233 258.857 233.206C258.184 234.18 257.239 234.932 256.14 235.37L233.14 244.14L244.07 253.07L265.64 244.66H287.53C289.436 244.658 291.272 243.945 292.68 242.66C296.48 239.22 298.37 232.93 299.05 226.97C299.91 219.5 290.14 211.44 286.05 209.78ZM291.26 232.57C289.74 235.34 286.7 236.18 283.95 236.5C280.628 236.833 277.286 236.93 273.95 236.79C272.183 236.689 270.457 236.222 268.88 235.42C267.35 234.65 266.17 232.29 266.03 230.31C265.598 228.754 265.561 227.115 265.92 225.54C266.361 223.449 267.361 221.517 268.814 219.949C270.267 218.382 272.118 217.238 274.17 216.64C277.97 215.64 281.99 216.72 285.48 218.77C287.819 220.032 289.74 221.946 291.01 224.28C291.689 225.548 292.066 226.957 292.109 228.396C292.152 229.834 291.862 231.263 291.26 232.57Z" fill="#DF1683"/>
<path d="M428.44 300.07L426.21 283.82L432.07 228.82C436.35 196 402.85 189.93 402.85 189.93C401.77 191.65 370.25 210.06 366.31 193.23C364.41 193.84 351.79 198.01 346.66 202.76C341.09 207.9 327.24 243.81 327.24 243.81L337.87 257.32C341.82 272.06 351.21 295.78 351.21 295.78L342.85 303.7C381.09 333.95 413.11 323.7 425.49 317.7C427.004 316.973 428.33 315.906 429.365 314.583C430.399 313.26 431.115 311.716 431.455 310.071C431.796 308.426 431.752 306.725 431.328 305.099C430.904 303.474 430.111 301.969 429.01 300.7C428.831 300.48 428.641 300.27 428.44 300.07Z" fill="#DACAD2"/>
<path d="M428.44 300.07C428.933 300.53 429.379 301.04 429.77 301.59C430.924 303.199 431.596 305.103 431.71 307.08C431.812 308.526 431.621 309.979 431.15 311.35C430.594 313.002 429.651 314.497 428.4 315.71C428.063 316.049 427.698 316.36 427.31 316.64L426.71 317.08L426.06 317.45C425.18 317.97 424.22 318.34 423.26 318.81C422.3 319.28 421.26 319.63 420.2 320.07C419.14 320.51 418.02 320.83 416.89 321.23C405.827 324.714 394.073 325.401 382.68 323.23C375.727 321.802 368.977 319.525 362.58 316.45L357.53 313.83C356.676 313.382 355.845 312.892 355.04 312.36L352.55 310.81L350 309.22C349.18 308.67 348.39 308.06 347.57 307.47L342.66 303.87L342.45 303.71L342.65 303.53L351 295.6L350.95 295.86C348.62 289.93 346.29 283.74 344.01 277.33C341.73 270.92 339.48 264.27 337.59 257.33V257.42L327 244L326.91 243.89L326.96 243.75C330.28 235.29 333.9 226.45 337.96 217.61C339.38 214.61 340.82 211.61 342.4 208.61C343.194 207.147 344.061 205.725 345 204.35C345.223 203.992 345.481 203.657 345.77 203.35C346.035 203.023 346.318 202.713 346.62 202.42L347.62 201.62L348.62 200.9C351.352 199.112 354.249 197.589 357.27 196.35C360.23 195.083 363.23 193.957 366.27 192.97L366.53 192.89L366.6 193.16C366.974 194.918 367.865 196.523 369.16 197.77C370.522 198.909 372.186 199.628 373.95 199.84C377.478 200.169 381.036 199.763 384.4 198.65C387.725 197.662 390.962 196.401 394.08 194.88C395.62 194.13 397.08 193.35 398.6 192.52C399.33 192.1 400.06 191.67 400.76 191.22C401.453 190.814 402.1 190.335 402.69 189.79L402.82 189.65H402.93C408.832 190.972 414.407 193.472 419.32 197C423.982 200.296 427.671 204.787 430 210C431.059 212.492 431.804 215.105 432.22 217.78C432.571 220.358 432.675 222.963 432.53 225.56C432.09 230.64 431.53 235.45 431.02 240.08C429.02 258.54 427.4 273.48 426.27 283.85C426.97 289.07 427.51 293.13 427.87 295.85C428.05 297.23 428.19 298.28 428.28 299C428.37 299.72 428.4 300.07 428.4 300.07C428.4 300.07 428.34 299.72 428.23 299.02C428.12 298.32 427.98 297.26 427.78 295.9C427.39 293.13 426.78 289.07 426.07 283.84C427.16 273.47 428.72 258.52 430.65 240.05C431.12 235.43 431.7 230.58 432.13 225.55C432.271 222.979 432.164 220.4 431.81 217.85C431.399 215.211 430.656 212.634 429.6 210.18C427.285 205.033 423.627 200.605 419.01 197.36C414.133 193.902 408.61 191.46 402.77 190.18L403.01 190.07C402.717 190.407 402.381 190.703 402.01 190.95C401.66 191.19 401.31 191.43 400.95 191.66C400.24 192.12 399.51 192.54 398.77 192.97C397.29 193.81 395.773 194.603 394.22 195.35C391.078 196.881 387.818 198.156 384.47 199.16C381.036 200.301 377.402 200.714 373.8 200.37C371.939 200.147 370.184 199.386 368.75 198.18C367.375 196.866 366.428 195.169 366.03 193.31L366.36 193.49C363.36 194.49 360.36 195.59 357.42 196.85C354.435 198.078 351.572 199.584 348.87 201.35C346.03 203.04 344.49 206.02 342.87 208.88C341.25 211.74 339.87 214.79 338.44 217.82C334.44 226.64 330.78 235.48 327.44 243.93V243.68L338.07 257.18V257.23C339.95 264.11 342.2 270.74 344.47 277.15C346.74 283.56 349.06 289.75 351.38 295.67L351.43 295.82L351.32 295.93L343 303.86V303.51L347.88 307.1C348.69 307.69 349.48 308.3 350.3 308.85L352.8 310.42L355.27 311.96C356.1 312.46 356.89 313.02 357.75 313.43L362.75 316.05C369.115 319.119 375.832 321.399 382.75 322.84C394.081 325.044 405.782 324.412 416.81 321C417.94 320.61 419.04 320.25 420.11 319.86C421.18 319.47 422.18 319.04 423.16 318.62C424.14 318.2 425.09 317.79 425.95 317.29L426.59 316.93L427.18 316.5C427.563 316.23 427.921 315.925 428.25 315.59C429.49 314.405 430.43 312.941 430.99 311.32C431.453 309.971 431.65 308.544 431.57 307.12C431.469 305.163 430.825 303.272 429.71 301.66C429.3 301.14 429.03 300.72 428.78 300.48L428.44 300.07Z" fill="#340920"/>
<path d="M353.15 209.16C352.853 209.796 352.519 210.413 352.15 211.01C351.46 212.19 350.54 213.94 349.53 216.16C348.52 218.38 347.44 221.09 346.33 224.16C345.22 227.23 344.07 230.56 342.74 234.05C341.41 237.54 340.21 240.88 339.36 243.99C338.57 246.73 338.067 249.546 337.86 252.39C337.726 254.309 337.834 256.238 338.18 258.13C338.44 259.46 338.67 260.19 338.62 260.2C338.527 260.042 338.459 259.869 338.42 259.69C338.238 259.194 338.091 258.686 337.98 258.17C337.555 256.271 337.394 254.323 337.5 252.38C337.647 249.5 338.117 246.645 338.9 243.87C339.847 240.481 340.969 237.143 342.26 233.87L345.88 223.99C347.02 220.99 348.13 218.26 349.2 216.05C350.022 214.297 350.947 212.594 351.97 210.95C352.33 210.36 352.65 209.95 352.85 209.64C352.931 209.469 353.032 209.308 353.15 209.16Z" fill="#340920"/>
<path d="M313.16 284.83C313.16 284.83 300.16 278.24 296.91 275.94C294.538 274.372 291.812 273.42 288.98 273.17C288.4 273.17 279.8 272.5 278.08 275.28L287.26 279.86C287.26 279.86 282 281.68 281.04 281.39C280.08 281.1 271.39 278.33 269.96 279.58C268.53 280.83 267.47 282.35 268.96 284.07C270.45 285.79 275.07 286.65 275.07 286.65C275.07 286.65 275.55 291.91 279.07 293.53C278.699 294.247 278.611 295.077 278.822 295.856C279.033 296.636 279.528 297.308 280.21 297.74C280.21 297.74 284.71 303.19 287 304.52C289.29 305.85 288.43 305.19 293.69 304.52C298.95 303.85 303.69 300.32 307.07 300.61C310.45 300.9 313.16 284.83 313.16 284.83Z" fill="#FFBF9D"/>
<path d="M268.53 220.31C268.53 220.31 268.31 225.31 270.34 226.14C272.37 226.97 273.75 225.69 275.02 223.37C275.02 223.37 275.66 226.58 280.02 226.18C280.02 226.18 281.71 230.67 284.27 229.13C284.27 229.13 285.55 235.35 289.69 229.99C293.83 224.63 294.33 218.76 293.55 217.92C292.77 217.08 292.42 217.11 292.42 217.11C292.42 217.11 294.6 213.36 293.02 211.56C291.44 209.76 288.79 212.65 288.79 212.65C288.79 212.65 289.69 209.95 288.17 209.05C286.65 208.15 284.85 208.93 283.38 210.8C281.38 213.33 280.22 214.92 280.22 214.92C280.22 214.92 281.8 211.33 279.38 210.83C276.53 210.24 268.53 220.31 268.53 220.31Z" fill="#FFBF9D"/>
<path d="M268.53 220.31C268.583 220.201 268.65 220.101 268.73 220.01L269.36 219.2C269.93 218.49 270.77 217.47 271.91 216.2C273.274 214.653 274.766 213.225 276.37 211.93C276.868 211.544 277.404 211.209 277.97 210.93C278.285 210.778 278.623 210.676 278.97 210.63C279.34 210.598 279.71 210.682 280.03 210.87C280.353 211.073 280.612 211.365 280.775 211.71C280.938 212.056 280.999 212.441 280.95 212.82C280.904 213.57 280.732 214.307 280.44 215L280.07 214.79C280.73 213.92 281.42 213.03 282.12 212.1C282.795 211.084 283.598 210.16 284.51 209.35C285.021 208.932 285.624 208.641 286.27 208.5C286.953 208.359 287.665 208.473 288.27 208.82C288.59 209.012 288.849 209.289 289.02 209.62C289.171 209.934 289.263 210.273 289.29 210.62C289.329 211.32 289.241 212.021 289.03 212.69L288.6 212.44C289.216 211.765 289.97 211.23 290.81 210.87C291.271 210.673 291.783 210.631 292.27 210.75C292.764 210.905 293.184 211.236 293.45 211.68C293.895 212.567 293.98 213.591 293.69 214.54C293.462 215.473 293.109 216.371 292.64 217.21L292.39 216.82C292.623 216.831 292.847 216.915 293.03 217.06C293.187 217.17 293.335 217.294 293.47 217.43L293.74 217.7C293.838 217.822 293.913 217.961 293.96 218.11C294.034 218.361 294.081 218.619 294.1 218.88C294.129 219.374 294.112 219.869 294.05 220.36C293.939 221.318 293.745 222.265 293.47 223.19C292.927 224.97 292.154 226.671 291.17 228.25C290.698 229.016 290.174 229.747 289.6 230.44C289.057 231.163 288.356 231.751 287.55 232.16C287.111 232.36 286.616 232.402 286.15 232.28C285.712 232.118 285.333 231.829 285.06 231.45C284.565 230.76 284.224 229.973 284.06 229.14L284.4 229.29C283.907 229.595 283.315 229.696 282.75 229.57C282.221 229.429 281.745 229.137 281.38 228.73C280.713 227.992 280.187 227.138 279.83 226.21L280.05 226.35C278.918 226.486 277.771 226.288 276.75 225.78C276.287 225.528 275.881 225.185 275.556 224.77C275.231 224.356 274.994 223.879 274.86 223.37L275.18 223.42C274.749 224.259 274.185 225.022 273.51 225.68C273.203 225.986 272.829 226.216 272.418 226.353C272.006 226.49 271.569 226.53 271.14 226.47C270.756 226.419 270.388 226.286 270.06 226.08C269.753 225.885 269.498 225.617 269.32 225.3C269.026 224.767 268.824 224.189 268.72 223.59C268.56 222.78 268.483 221.956 268.49 221.13C268.49 220.84 268.49 220.63 268.49 220.49C268.49 220.35 268.49 220.27 268.49 220.27C268.522 220.552 268.538 220.836 268.54 221.12C268.578 221.938 268.685 222.751 268.86 223.55C268.975 224.123 269.181 224.673 269.47 225.18C269.648 225.466 269.892 225.705 270.18 225.879C270.469 226.052 270.794 226.156 271.13 226.18C271.517 226.228 271.911 226.186 272.279 226.056C272.647 225.926 272.979 225.711 273.25 225.43C273.887 224.788 274.417 224.049 274.82 223.24L275.04 222.85L275.15 223.29C275.28 223.746 275.502 224.17 275.801 224.538C276.1 224.906 276.47 225.209 276.89 225.43C277.848 225.92 278.93 226.118 280 226H280.15L280.21 226.15C280.552 227.019 281.054 227.816 281.69 228.5C281.996 228.843 282.396 229.09 282.84 229.21C283.29 229.303 283.759 229.221 284.15 228.98L284.42 228.83L284.5 229.13C284.661 229.89 284.978 230.608 285.43 231.24C285.65 231.54 285.952 231.769 286.3 231.9C286.471 231.94 286.649 231.94 286.82 231.9C287.008 231.893 287.192 231.845 287.36 231.76C288.092 231.373 288.728 230.826 289.22 230.16C289.774 229.485 290.282 228.773 290.74 228.03C291.695 226.484 292.445 224.82 292.97 223.08C293.24 222.189 293.431 221.275 293.54 220.35C293.58 219.888 293.58 219.422 293.54 218.96C293.525 218.743 293.488 218.529 293.43 218.32C293.401 218.24 293.364 218.163 293.32 218.09L293.07 217.84C292.95 217.73 292.82 217.62 292.7 217.53C292.605 217.468 292.505 217.414 292.4 217.37L292.15 216.98C292.595 216.189 292.931 215.341 293.15 214.46C293.404 213.649 293.35 212.774 293 212C292.805 211.662 292.491 211.409 292.12 211.29C291.738 211.203 291.338 211.242 290.98 211.4C290.22 211.73 289.538 212.217 288.98 212.83L288.26 213.56L288.56 212.56C288.753 211.956 288.834 211.323 288.8 210.69C288.805 210.403 288.738 210.119 288.603 209.865C288.468 209.612 288.271 209.396 288.03 209.24C287.507 208.976 286.915 208.879 286.336 208.963C285.756 209.047 285.216 209.308 284.79 209.71C283.91 210.494 283.131 211.384 282.47 212.36L280.39 215L279.39 216.26L280 214.79C280.275 214.156 280.441 213.48 280.49 212.79C280.541 212.484 280.502 212.17 280.377 211.886C280.253 211.602 280.049 211.36 279.79 211.19C279.53 211.046 279.237 210.97 278.94 210.97C278.642 210.97 278.35 211.046 278.09 211.19C277.548 211.453 277.032 211.768 276.55 212.13C274.945 213.399 273.444 214.793 272.06 216.3C270.9 217.53 270.06 218.53 269.43 219.21C269.15 219.53 268.92 219.78 268.75 219.99C268.686 220.103 268.612 220.21 268.53 220.31Z" fill="#FF9A6C"/>
<path d="M280.22 215.25C279.663 216.719 278.956 218.126 278.11 219.45C277.386 220.87 276.363 222.115 275.11 223.1C275 223 276.36 221.42 277.65 219.18C278.94 216.94 280.08 215.16 280.22 215.25Z" fill="#FF9A6C"/>
<path d="M288.92 212.13C288.76 212.924 288.48 213.69 288.09 214.4C287.266 216.157 286.344 217.866 285.33 219.52C284.41 221.239 283.353 222.881 282.17 224.43C281.671 225.1 280.97 225.591 280.17 225.83C280.793 225.345 281.363 224.795 281.87 224.19C282.78 223.06 283.68 221.19 284.87 219.26C286.06 217.33 287.07 215.55 287.75 214.26C288.089 213.523 288.48 212.812 288.92 212.13Z" fill="#FF9A6C"/>
<path d="M293 215.68C292.89 216.44 292.664 217.178 292.33 217.87C290.941 221.312 288.904 224.456 286.33 227.13C285.833 227.717 285.253 228.229 284.61 228.65C284.49 228.53 287.01 226.11 289.31 222.5C291.61 218.89 292.81 215.62 293 215.68Z" fill="#FF9A6C"/>
<path d="M230.05 256.58C230.052 257.502 229.78 258.404 229.269 259.172C228.759 259.939 228.032 260.538 227.18 260.892C226.329 261.247 225.392 261.34 224.487 261.162C223.582 260.983 222.751 260.54 222.098 259.889C221.446 259.237 221.001 258.407 220.82 257.503C220.64 256.599 220.731 255.661 221.084 254.809C221.436 253.957 222.033 253.229 222.8 252.716C223.567 252.204 224.468 251.93 225.39 251.93C226.624 251.93 227.808 252.42 228.682 253.291C229.555 254.163 230.047 255.346 230.05 256.58Z" fill="#DACAD2"/>
<path d="M230.05 256.58C230 256.58 230 256.17 229.8 255.47C229.521 254.49 228.922 253.632 228.1 253.03C227.441 252.538 226.659 252.24 225.84 252.167C225.022 252.095 224.199 252.252 223.464 252.62C222.73 252.988 222.112 253.554 221.68 254.253C221.249 254.952 221.02 255.758 221.02 256.58C221.02 257.402 221.249 258.208 221.68 258.907C222.112 259.606 222.73 260.172 223.464 260.54C224.199 260.908 225.022 261.065 225.84 260.993C226.659 260.92 227.441 260.622 228.1 260.13C228.922 259.528 229.521 258.67 229.8 257.69C230 256.99 230 256.58 230.05 256.58C230.069 256.679 230.069 256.781 230.05 256.88C230.061 257.169 230.034 257.458 229.97 257.74C229.744 258.806 229.149 259.759 228.29 260.43C227.648 260.932 226.89 261.264 226.086 261.395C225.282 261.526 224.458 261.452 223.69 261.18C222.744 260.839 221.926 260.214 221.347 259.391C220.769 258.567 220.459 257.586 220.459 256.58C220.459 255.574 220.769 254.593 221.347 253.769C221.926 252.946 222.744 252.321 223.69 251.98C224.458 251.708 225.282 251.634 226.086 251.765C226.89 251.896 227.648 252.228 228.29 252.73C229.146 253.404 229.74 254.355 229.97 255.42C230.034 255.702 230.061 255.991 230.05 256.28C230.069 256.379 230.069 256.481 230.05 256.58Z" fill="#340920"/>
<path d="M228.4 258.32C226.092 257.742 224.052 256.39 222.62 254.49C222.72 254.39 223.88 255.42 225.47 256.49C226.479 257.046 227.457 257.657 228.4 258.32Z" fill="#340920"/>
<path d="M227.46 253.67C227.56 253.79 226.41 254.87 225.38 256.49C224.35 258.11 223.81 259.58 223.67 259.49C223.77 258.282 224.21 257.128 224.94 256.16C225.536 255.115 226.407 254.253 227.46 253.67Z" fill="#340920"/>
<path d="M338.37 275.26C338.28 275.26 338.06 273.82 337.54 271.52C336.208 265.507 333.94 259.74 330.82 254.43C329.62 252.43 328.82 251.18 328.87 251.13C329.123 251.364 329.345 251.629 329.53 251.92C329.94 252.44 330.53 253.23 331.13 254.24C334.453 259.494 336.75 265.331 337.9 271.44C338.12 272.61 338.26 273.57 338.32 274.23C338.374 274.57 338.391 274.916 338.37 275.26Z" fill="#FF9A6C"/>
<path d="M307.75 282.36L370.68 283.48C370.68 283.48 390 218.59 396.68 209.32C402.8 200.78 405.56 201.56 414.97 200.92C424.38 200.28 431.72 211.92 430.26 223.01C428.8 234.1 395.91 295.36 390.42 303.43C384.93 311.5 384.32 312.36 377.56 313.06C370.8 313.76 303.88 301.15 303.88 301.15L307.75 282.36Z" fill="#FFBF9D"/>
<path d="M376.77 249.77L416.86 266C416.86 266 432.55 228.11 432.45 219.15C432.35 210.19 426.17 199.92 418.89 197.6C411.61 195.28 401.06 198.47 396.36 206.41C391.66 214.35 376.77 249.77 376.77 249.77Z" fill="#DACAD2"/>
<path d="M376.77 249.77C376.77 249.77 376.82 249.61 376.94 249.3C377.06 248.99 377.26 248.52 377.49 247.94L379.65 242.74C381.54 238.24 384.31 231.74 387.85 223.74C389.63 219.74 391.58 215.38 393.85 210.74C394.936 208.297 396.302 205.988 397.92 203.86C399.772 201.683 402.071 199.93 404.66 198.72C405.994 198.082 407.392 197.586 408.83 197.24C410.295 196.864 411.798 196.653 413.31 196.61C416.467 196.414 419.603 197.234 422.26 198.95C423.604 199.832 424.821 200.891 425.88 202.1C426.973 203.308 427.944 204.621 428.78 206.02C429.626 207.438 430.355 208.923 430.96 210.46C431.56 212.019 432.018 213.629 432.33 215.27C432.554 216.492 432.684 217.729 432.72 218.97C432.72 219.59 432.63 220.22 432.59 220.83C432.521 221.438 432.421 222.042 432.29 222.64C431.84 225.04 431.17 227.35 430.51 229.64C429.15 234.19 427.64 238.56 426.12 242.77C423.07 251.2 419.98 259.02 417.12 266.07L417.04 266.27L416.84 266.19L387.71 254.28L379.58 251L377.47 250.13L376.77 249.82L377.54 250.1L379.7 250.95L387.85 254.19C394.85 257 404.85 261 416.94 265.84L416.66 265.95C419.53 258.95 422.6 251.08 425.66 242.65C427.17 238.44 428.66 234.08 430.03 229.55C430.69 227.28 431.35 224.98 431.79 222.62C431.88 222.03 432.04 221.44 432.09 220.84C432.14 220.24 432.2 219.65 432.21 219.05C432.173 217.839 432.046 216.632 431.83 215.44C431.524 213.826 431.072 212.243 430.48 210.71C429.888 209.203 429.172 207.748 428.34 206.36C427.529 204.987 426.581 203.701 425.51 202.52C424.476 201.345 423.292 200.309 421.99 199.44C419.42 197.786 416.391 196.991 413.34 197.17C410.409 197.269 407.529 197.97 404.88 199.23C402.345 200.401 400.093 202.107 398.28 204.23C396.693 206.33 395.351 208.605 394.28 211.01C392.02 215.61 390.04 220.01 388.28 223.95C384.7 231.95 381.89 238.4 379.94 242.88L377.59 248C377.33 248.57 377.13 249 376.99 249.34C376.85 249.68 376.77 249.77 376.77 249.77Z" fill="#340920"/>
<path d="M377.86 294.43C377.653 294.205 377.469 293.961 377.31 293.7L375.83 291.55L370.51 283.55L370.68 283.64C364.14 283.64 355.46 283.59 345.97 283.4L319.25 282.85L311.15 282.7L308.95 282.64C308.692 282.645 308.435 282.628 308.18 282.59C308.434 282.546 308.692 282.529 308.95 282.54H311.15C313.07 282.54 315.83 282.54 319.25 282.54C326.1 282.54 335.54 282.74 345.98 282.94C355.47 283.13 364.15 283.27 370.68 283.31H370.79V283.4L375.97 291.45L377.35 293.66C377.539 293.904 377.709 294.161 377.86 294.43Z" fill="#FF9A6C"/>
<path d="M390.43 311.5C390.924 311.479 391.419 311.496 391.91 311.55C392.38 311.55 392.91 311.63 393.64 311.63C394.37 311.63 395.08 311.69 395.93 311.63C397.914 311.6 399.894 311.45 401.86 311.18C406.68 310.521 411.367 309.11 415.75 307C417.539 306.132 419.272 305.154 420.94 304.07C421.66 303.63 422.27 303.17 422.83 302.78C423.39 302.39 423.83 302.05 424.22 301.78C424.592 301.457 424.994 301.169 425.42 300.92C425.097 301.288 424.739 301.623 424.35 301.92C423.99 302.24 423.55 302.62 423 303.03C422.45 303.44 421.86 303.93 421.14 304.39C419.491 305.513 417.763 306.516 415.97 307.39C413.759 308.473 411.469 309.386 409.12 310.12C406.767 310.821 404.363 311.336 401.93 311.66C399.941 311.921 397.936 312.038 395.93 312.01C395.07 312.01 394.3 311.95 393.62 311.91C393.041 311.884 392.463 311.827 391.89 311.74C391.396 311.714 390.906 311.633 390.43 311.5Z" fill="#340920"/>
</svg>
