<svg width="500" height="500" viewBox="0 0 500 500" fill="none" xmlns="http://www.w3.org/2000/svg">
<path d="M240.8 133.24C236 98.72 225.58 78.31 199.56 65.7C173.54 53.09 141.21 57 116.79 72.44C92.37 87.88 75.55 113.74 67.5 141.51C52.5 193.05 66.91 250.4 98.24 293.97C129.57 337.54 176.24 368.3 226.16 388.08C259.16 401.14 294.27 409.86 329.7 408.77C365.13 407.68 400.92 396.18 427.46 372.69C454 349.2 476.71 298.58 469.34 271.14C460.15 236.91 452.24 219.51 418.24 209.51C388.84 200.86 374.33 206.51 356.03 210.76C337.73 215.01 325.03 221.43 306.27 220.37C287.51 219.31 268.04 211.25 258.35 195.16C248 178 241.54 153.64 240.8 133.24Z" fill="#E3D1DA"/>
<path d="M318.26 381.39L206.73 380.87C203.54 380.856 200.384 380.213 197.443 378.979C194.501 377.745 191.832 375.944 189.587 373.678C187.341 371.412 185.564 368.726 184.357 365.774C183.149 362.821 182.536 359.66 182.55 356.47L183.73 76.88C183.744 73.6889 184.387 70.5318 185.622 67.5891C186.856 64.6464 188.658 61.9757 190.925 59.7294C193.192 57.4832 195.879 55.7054 198.832 54.4976C201.786 53.2897 204.949 52.6755 208.14 52.69L319.66 53.21C326.1 53.2391 332.266 55.8248 336.8 60.3985C341.334 64.9723 343.867 71.1596 343.84 77.6L342.66 357.19C342.648 360.381 342.008 363.539 340.775 366.483C339.542 369.427 337.741 372.099 335.475 374.346C333.209 376.594 330.522 378.373 327.568 379.581C324.615 380.79 321.451 381.404 318.26 381.39Z" fill="#613B4F"/>
<path d="M319.5 62.86L297.88 62.76C297.175 62.7717 296.48 62.9223 295.833 63.2032C295.187 63.4841 294.602 63.8897 294.112 64.3969C293.623 64.904 293.238 65.5028 292.98 66.1588C292.723 66.8148 292.597 67.5153 292.61 68.22V72.14C292.623 72.8452 292.497 73.5462 292.24 74.2028C291.982 74.8594 291.598 75.4588 291.108 75.9667C290.619 76.4747 290.034 76.8813 289.388 77.1632C288.741 77.4452 288.045 77.597 287.34 77.61L245.19 77.41C243.767 77.3707 242.417 76.7687 241.436 75.7358C240.456 74.703 239.925 73.3236 239.96 71.9L240 68C240.035 66.5764 239.504 65.197 238.524 64.1642C237.543 63.1313 236.194 62.5293 234.77 62.49H227.17L208.24 62.4C206 62.3881 203.78 62.8191 201.707 63.6681C199.634 64.5171 197.749 65.7675 196.161 67.3473C194.573 68.927 193.313 70.8051 192.453 72.8735C191.593 74.942 191.15 77.1599 191.15 79.4L190 352.19C189.989 354.423 190.419 356.637 191.264 358.704C192.11 360.771 193.354 362.652 194.926 364.238C196.498 365.824 198.368 367.085 200.427 367.948C202.487 368.812 204.697 369.261 206.93 369.27L318.23 369.79C320.47 369.802 322.69 369.371 324.763 368.522C326.836 367.673 328.721 366.423 330.309 364.843C331.897 363.263 333.157 361.385 334.017 359.316C334.877 357.248 335.32 355.03 335.32 352.79L336.48 79.89C336.484 77.6567 336.048 75.4445 335.196 73.3798C334.345 71.3151 333.095 69.4384 331.518 67.8569C329.942 66.2753 328.069 65.02 326.006 64.1627C323.944 63.3053 321.733 62.8626 319.5 62.86Z" fill="#FFF9FC"/>
<path d="M279.78 95.24H251.07V100.51H279.78V95.24Z" fill="#745063"/>
<path d="M217.18 139.63C217.409 139.636 217.637 139.666 217.86 139.72C218.066 139.666 218.277 139.635 218.49 139.63H217.18Z" fill="#745063"/>
<path d="M225.05 125.17C224.523 124.441 223.881 123.803 223.15 123.28C221.618 122.15 219.764 121.54 217.86 121.54C215.956 121.54 214.102 122.15 212.57 123.28C211.836 123.803 211.191 124.441 210.66 125.17C210.136 125.854 209.725 126.617 209.44 127.43C208.918 128.841 208.758 130.36 208.975 131.848C209.192 133.336 209.778 134.747 210.68 135.95C210.79 136.1 210.91 136.23 211.02 136.36C211.391 135.166 212.101 134.105 213.063 133.306C214.025 132.507 215.198 132.005 216.44 131.86C215.664 131.521 215.004 130.961 214.544 130.249C214.083 129.538 213.842 128.707 213.85 127.86C213.811 127.303 213.887 126.744 214.073 126.217C214.259 125.691 214.552 125.208 214.933 124.8C215.314 124.391 215.775 124.065 216.287 123.843C216.799 123.62 217.351 123.505 217.91 123.505C218.468 123.505 219.021 123.62 219.533 123.843C220.045 124.065 220.506 124.391 220.887 124.8C221.268 125.208 221.561 125.691 221.747 126.217C221.933 126.744 222.009 127.303 221.97 127.86C221.978 128.706 221.737 129.535 221.279 130.246C220.82 130.957 220.164 131.518 219.39 131.86C220.618 132.008 221.776 132.512 222.721 133.31C223.667 134.107 224.358 135.164 224.71 136.35L225.04 135.95C225.942 134.747 226.528 133.336 226.745 131.848C226.962 130.36 226.802 128.841 226.28 127.43C225.988 126.618 225.573 125.856 225.05 125.17Z" fill="#FFF9FC"/>
<path d="M226.78 127.25C226.484 126.384 226.052 125.57 225.5 124.84C224.943 124.072 224.268 123.397 223.5 122.84C221.871 121.632 219.898 120.98 217.87 120.98C215.842 120.98 213.868 121.632 212.24 122.84C211.469 123.394 210.794 124.069 210.24 124.84C209.689 125.572 209.254 126.385 208.95 127.25C208.381 128.853 208.25 130.579 208.57 132.25C208.845 133.707 209.462 135.078 210.37 136.25C211.672 137.939 213.521 139.123 215.6 139.6C216.154 139.733 216.721 139.8 217.29 139.8C217.486 139.826 217.684 139.826 217.88 139.8C217.657 139.746 217.429 139.716 217.2 139.71H218.51C218.297 139.715 218.086 139.746 217.88 139.8C218.076 139.826 218.274 139.826 218.47 139.8C219.039 139.8 219.606 139.733 220.16 139.6C222.236 139.123 224.081 137.938 225.38 136.25C226.295 135.081 226.916 133.709 227.19 132.25C227.505 130.577 227.364 128.849 226.78 127.25ZM226.69 132.15C226.439 133.549 225.859 134.868 225 136L224.67 136.4C224.318 135.214 223.627 134.157 222.681 133.36C221.736 132.562 220.578 132.058 219.35 131.91C220.124 131.568 220.78 131.007 221.239 130.296C221.697 129.585 221.938 128.756 221.93 127.91C221.969 127.353 221.893 126.794 221.707 126.267C221.521 125.741 221.228 125.258 220.847 124.85C220.466 124.441 220.005 124.115 219.493 123.893C218.981 123.67 218.428 123.555 217.87 123.555C217.311 123.555 216.759 123.67 216.247 123.893C215.735 124.115 215.274 124.441 214.893 124.85C214.512 125.258 214.219 125.741 214.033 126.267C213.847 126.794 213.771 127.353 213.81 127.91C213.802 128.757 214.043 129.588 214.504 130.299C214.964 131.011 215.624 131.571 216.4 131.91C215.158 132.055 213.985 132.557 213.023 133.356C212.061 134.155 211.351 135.216 210.98 136.41C210.87 136.28 210.75 136.15 210.64 136C209.738 134.797 209.152 133.386 208.935 131.898C208.718 130.41 208.878 128.891 209.4 127.48C209.685 126.667 210.096 125.904 210.62 125.22C211.151 124.491 211.796 123.853 212.53 123.33C214.062 122.2 215.916 121.59 217.82 121.59C219.724 121.59 221.578 122.2 223.11 123.33C223.841 123.853 224.483 124.491 225.01 125.22C225.533 125.906 225.948 126.668 226.24 127.48C226.8 128.97 226.956 130.581 226.69 132.15Z" fill="#745063"/>
<path d="M325.9 148.05C325.9 148.05 326.19 148.05 326.73 147.94C327.531 147.774 328.269 147.386 328.86 146.82C329.334 146.361 329.7 145.803 329.932 145.186C330.163 144.568 330.255 143.907 330.2 143.25C330.2 141.66 330.2 139.83 330.2 137.78C330.2 133.66 330.2 128.63 330.15 122.78C330.15 121.32 330.15 119.78 330.15 118.24C330.191 117.464 330.017 116.691 329.649 116.007C329.28 115.323 328.73 114.753 328.06 114.36C326.68 113.49 324.88 113.87 323.15 113.79H317.77L202.77 113.87C202.115 113.873 201.469 114.031 200.887 114.332C200.304 114.632 199.802 115.067 199.42 115.6C199.04 116.133 198.796 116.751 198.71 117.4C198.659 118.065 198.642 118.733 198.66 119.4V143.79C198.689 144.408 198.857 145.011 199.151 145.554C199.446 146.098 199.859 146.568 200.36 146.93C200.855 147.291 201.426 147.534 202.03 147.64C202.66 147.714 203.296 147.738 203.93 147.71H226.59L278.28 147.77L313.12 147.86L322.6 147.91H325.06C325.62 147.91 325.9 147.91 325.9 147.91H325.06H322.6L313.12 147.97L278.28 148.06L226.59 148.12H203.93C203.262 148.143 202.594 148.116 201.93 148.04C200.888 147.853 199.941 147.318 199.243 146.522C198.546 145.726 198.139 144.717 198.09 143.66C198.09 138.36 198.09 132.973 198.09 127.5V119.24C198.09 118.54 198.09 117.87 198.09 117.12C198.199 116.399 198.476 115.714 198.9 115.12C199.332 114.505 199.905 114.002 200.572 113.654C201.238 113.306 201.978 113.123 202.73 113.12L317.73 113.2H325.73C326.608 113.167 327.476 113.389 328.23 113.84C328.953 114.268 329.544 114.886 329.941 115.626C330.338 116.366 330.524 117.201 330.48 118.04C330.48 119.6 330.48 121.12 330.48 122.58C330.48 128.42 330.48 133.45 330.43 137.58C330.43 139.63 330.43 141.46 330.43 143.05C330.475 143.729 330.37 144.409 330.121 145.042C329.872 145.675 329.486 146.244 328.99 146.71C328.376 147.277 327.613 147.655 326.79 147.8C326.507 147.927 326.207 148.011 325.9 148.05Z" fill="#745063"/>
<path d="M268.16 122.56H235.68V125H268.16V122.56Z" fill="#745063"/>
<path d="M292.58 136.32H235.68V138.76H292.58V136.32Z" fill="#745063"/>
<path d="M318.14 129.27H235.68V131.71H318.14V129.27Z" fill="#745063"/>
<path d="M217.18 225.79C217.62 225.85 217.86 225.85 217.86 225.89C218.066 225.836 218.277 225.805 218.49 225.8L217.18 225.79Z" fill="#745063"/>
<path d="M225.05 211.34C224.526 210.609 223.884 209.97 223.15 209.45C221.618 208.32 219.764 207.71 217.86 207.71C215.956 207.71 214.102 208.32 212.57 209.45C211.138 210.492 210.048 211.937 209.44 213.6C208.918 215.011 208.758 216.53 208.975 218.018C209.192 219.506 209.778 220.917 210.68 222.12L211.02 222.53C211.388 221.334 212.096 220.271 213.059 219.472C214.022 218.672 215.197 218.171 216.44 218.03C215.664 217.691 215.004 217.131 214.544 216.419C214.083 215.708 213.842 214.877 213.85 214.03C213.811 213.473 213.887 212.914 214.073 212.387C214.259 211.861 214.552 211.378 214.933 210.97C215.314 210.561 215.775 210.235 216.287 210.013C216.799 209.79 217.351 209.675 217.91 209.675C218.468 209.675 219.021 209.79 219.533 210.013C220.045 210.235 220.506 210.561 220.887 210.97C221.268 211.378 221.561 211.861 221.747 212.387C221.933 212.914 222.009 213.473 221.97 214.03C221.976 214.876 221.736 215.705 221.277 216.415C220.819 217.126 220.163 217.687 219.39 218.03C220.617 218.176 221.775 218.678 222.72 219.474C223.666 220.27 224.357 221.325 224.71 222.51L225.04 222.12C225.942 220.917 226.528 219.506 226.745 218.018C226.962 216.53 226.802 215.011 226.28 213.6C225.988 212.788 225.573 212.026 225.05 211.34Z" fill="#FFF9FC"/>
<path d="M226.78 213.42C226.487 212.549 226.055 211.732 225.5 211C224.943 210.232 224.268 209.557 223.5 209C221.871 207.792 219.898 207.14 217.87 207.14C215.842 207.14 213.868 207.792 212.24 209C210.73 210.122 209.583 211.662 208.94 213.43C208.369 215.033 208.238 216.759 208.56 218.43C208.835 219.887 209.452 221.258 210.36 222.43C211.666 224.114 213.513 225.294 215.59 225.77C216.142 225.91 216.71 225.98 217.28 225.98C217.476 226.006 217.674 226.006 217.87 225.98C217.87 225.98 217.63 225.98 217.19 225.88H218.5C218.287 225.885 218.076 225.916 217.87 225.97C218.066 225.996 218.264 225.996 218.46 225.97C219.03 225.97 219.598 225.9 220.15 225.76C222.224 225.283 224.068 224.103 225.37 222.42C226.283 221.25 226.904 219.878 227.18 218.42C227.5 216.748 227.362 215.02 226.78 213.42ZM226.69 218.32C226.443 219.698 225.878 220.999 225.04 222.12L224.71 222.51C224.357 221.325 223.666 220.27 222.72 219.474C221.775 218.678 220.617 218.176 219.39 218.03C220.163 217.687 220.819 217.126 221.277 216.415C221.736 215.705 221.976 214.876 221.97 214.03C222.009 213.473 221.933 212.914 221.747 212.387C221.561 211.861 221.268 211.378 220.887 210.97C220.506 210.561 220.045 210.235 219.533 210.013C219.021 209.79 218.468 209.675 217.91 209.675C217.351 209.675 216.799 209.79 216.287 210.013C215.775 210.235 215.314 210.561 214.933 210.97C214.552 211.378 214.259 211.861 214.073 212.387C213.887 212.914 213.811 213.473 213.85 214.03C213.842 214.877 214.083 215.708 214.544 216.419C215.004 217.131 215.664 217.691 216.44 218.03C215.197 218.171 214.022 218.672 213.059 219.472C212.096 220.271 211.388 221.334 211.02 222.53L210.68 222.12C209.778 220.917 209.192 219.506 208.975 218.018C208.758 216.53 208.918 215.011 209.44 213.6C210.048 211.937 211.138 210.492 212.57 209.45C214.102 208.32 215.956 207.71 217.86 207.71C219.764 207.71 221.618 208.32 223.15 209.45C223.884 209.97 224.526 210.609 225.05 211.34C225.573 212.026 225.988 212.788 226.28 213.6C226.836 215.108 226.977 216.738 226.69 218.32Z" fill="#745063"/>
<path d="M325.9 234.22C325.9 234.22 326.19 234.22 326.73 234.11C327.531 233.944 328.269 233.556 328.86 232.99C329.335 232.53 329.702 231.97 329.934 231.351C330.166 230.732 330.257 230.069 330.2 229.41C330.2 227.83 330.2 226 330.2 223.94C330.2 219.83 330.2 214.79 330.15 208.94C330.15 207.48 330.15 205.94 330.15 204.41C330.19 203.633 330.017 202.859 329.648 202.173C329.28 201.487 328.731 200.916 328.06 200.52C326.68 199.65 324.88 200.03 323.15 199.95H317.77L202.77 200.04C202.114 200.04 201.468 200.197 200.885 200.498C200.302 200.799 199.8 201.235 199.42 201.77C199.039 202.299 198.795 202.914 198.71 203.56C198.659 204.225 198.642 204.893 198.66 205.56V230C198.69 230.617 198.859 231.22 199.153 231.763C199.447 232.307 199.86 232.777 200.36 233.14C200.855 233.501 201.426 233.744 202.03 233.85C202.661 233.919 203.296 233.943 203.93 233.92H226.59L278.28 233.98L313.12 234.08H322.6L313.12 234.13L278.28 234.23L226.59 234.29H203.93C203.262 234.316 202.594 234.293 201.93 234.22C200.915 234.038 199.989 233.525 199.297 232.762C198.604 231.999 198.183 231.027 198.1 230C198.1 224.7 198.1 219.313 198.1 213.84V205.58C198.1 204.88 198.1 204.22 198.1 203.46C198.201 202.721 198.479 202.018 198.91 201.41C199.343 200.796 199.917 200.294 200.583 199.946C201.249 199.598 201.988 199.414 202.74 199.41L317.74 199.49H325.74C326.378 199.465 327.014 199.574 327.608 199.81C328.201 200.046 328.739 200.403 329.186 200.859C329.634 201.314 329.981 201.859 330.205 202.456C330.43 203.054 330.527 203.692 330.49 204.33C330.49 205.89 330.49 207.4 330.49 208.86C330.49 214.7 330.49 219.74 330.44 223.86C330.44 225.92 330.44 227.75 330.44 229.33C330.486 230.009 330.381 230.689 330.132 231.322C329.883 231.955 329.496 232.525 329 232.99C328.386 233.559 327.623 233.94 326.8 234.09C326.508 234.177 326.205 234.221 325.9 234.22Z" fill="#745063"/>
<path d="M268.16 208.72H235.68V211.16H268.16V208.72Z" fill="#745063"/>
<path d="M292.58 222.49H235.68V224.93H292.58V222.49Z" fill="#745063"/>
<path d="M318.14 215.44H235.68V217.88H318.14V215.44Z" fill="#745063"/>
<path d="M198.686 159.51L198.611 186.1C198.605 188.27 200.36 190.035 202.53 190.041L326.59 190.387C328.76 190.393 330.525 188.639 330.531 186.468L330.605 159.878C330.611 157.708 328.857 155.944 326.686 155.937L202.627 155.591C200.456 155.585 198.692 157.34 198.686 159.51Z" fill="#DF1683"/>
<path d="M268.489 164.729L236.009 164.638L236.002 167.078L268.482 167.169L268.489 164.729Z" fill="#FFF9FC"/>
<path d="M292.87 178.557L235.971 178.398L235.964 180.838L292.864 180.997L292.87 178.557Z" fill="#FFF9FC"/>
<path d="M318.45 171.589L235.99 171.358L235.983 173.798L318.443 174.029L318.45 171.589Z" fill="#FFF9FC"/>
<path d="M219.71 173.88C220.477 173.52 221.122 172.944 221.566 172.223C222.01 171.502 222.234 170.667 222.21 169.82C222.239 169.263 222.153 168.706 221.958 168.183C221.763 167.661 221.462 167.184 221.075 166.782C220.688 166.381 220.222 166.063 219.707 165.849C219.192 165.635 218.638 165.529 218.08 165.538C217.523 165.547 216.973 165.67 216.465 165.901C215.956 166.131 215.501 166.464 215.127 166.877C214.753 167.291 214.468 167.777 214.289 168.306C214.111 168.835 214.043 169.394 214.09 169.95C214.088 170.806 214.342 171.644 214.817 172.356C215.292 173.068 215.969 173.623 216.76 173.95C215.481 174.13 214.285 174.687 213.324 175.549C212.362 176.41 211.679 177.539 211.36 178.79C212.853 180.41 214.873 181.445 217.06 181.71H219.56C221.771 181.375 223.784 180.244 225.22 178.53C224.875 177.291 224.165 176.185 223.182 175.355C222.199 174.526 220.989 174.012 219.71 173.88Z" fill="#FFF9FC"/>
<path d="M218.35 181.77C218.35 181.7 219.17 181.77 220.57 181.33C221.786 180.987 222.916 180.395 223.89 179.59C224.863 178.785 225.658 177.786 226.222 176.656C226.787 175.527 227.11 174.291 227.17 173.03C227.23 171.768 227.025 170.508 226.57 169.33C226.265 168.522 225.837 167.766 225.3 167.09C224.752 166.372 224.093 165.744 223.35 165.23C221.784 164.137 219.912 163.57 218.002 163.611C216.093 163.652 214.247 164.3 212.73 165.46C212.009 166.004 211.378 166.659 210.86 167.4C210.352 168.099 209.954 168.871 209.68 169.69C209.275 170.887 209.124 172.155 209.235 173.414C209.346 174.673 209.717 175.895 210.326 177.002C210.934 178.11 211.766 179.079 212.768 179.848C213.771 180.617 214.923 181.169 216.15 181.47C217.57 181.81 218.4 181.74 218.39 181.81C217.627 181.887 216.857 181.84 216.11 181.67C214.03 181.234 212.165 180.093 210.83 178.44C209.905 177.299 209.261 175.956 208.95 174.52C208.593 172.858 208.69 171.131 209.23 169.52C209.83 167.743 210.94 166.182 212.42 165.03C214.018 163.793 215.97 163.102 217.99 163.059C220.01 163.016 221.991 163.623 223.64 164.79C224.426 165.342 225.119 166.017 225.69 166.79C226.255 167.509 226.704 168.312 227.02 169.17C227.633 170.761 227.803 172.49 227.51 174.17C227.207 175.938 226.4 177.581 225.187 178.902C223.974 180.224 222.406 181.167 220.67 181.62C219.911 181.801 219.126 181.852 218.35 181.77Z" fill="#FFF9FC"/>
<path d="M256.51 343.66C256.429 344.21 256.152 344.713 255.731 345.077C255.309 345.44 254.771 345.64 254.215 345.64C253.659 345.64 253.121 345.44 252.699 345.077C252.278 344.713 252.001 344.21 251.92 343.66C252.001 343.11 252.278 342.607 252.699 342.243C253.121 341.88 253.659 341.68 254.215 341.68C254.771 341.68 255.309 341.88 255.731 342.243C256.152 342.607 256.429 343.11 256.51 343.66Z" fill="#745063"/>
<path d="M263.63 343.69C263.695 344.158 263.616 344.635 263.402 345.057C263.189 345.479 262.851 345.826 262.436 346.051C262.02 346.276 261.545 346.368 261.075 346.316C260.605 346.263 260.162 346.068 259.806 345.757C259.45 345.446 259.197 345.034 259.082 344.575C258.967 344.117 258.995 343.634 259.161 343.191C259.328 342.749 259.626 342.368 260.016 342.1C260.405 341.831 260.867 341.688 261.34 341.69C261.909 341.652 262.47 341.841 262.899 342.216C263.329 342.591 263.591 343.121 263.63 343.69Z" fill="#745063"/>
<path d="M270.74 343.72C270.805 344.189 270.726 344.666 270.512 345.088C270.298 345.511 269.96 345.857 269.543 346.082C269.127 346.307 268.651 346.398 268.181 346.345C267.711 346.292 267.268 346.096 266.912 345.784C266.556 345.472 266.305 345.058 266.191 344.599C266.076 344.14 266.106 343.657 266.274 343.214C266.442 342.772 266.742 342.392 267.133 342.125C267.524 341.858 267.987 341.716 268.46 341.72C269.027 341.684 269.585 341.875 270.013 342.249C270.44 342.624 270.701 343.153 270.74 343.72Z" fill="#745063"/>
<path d="M217.18 270.48C217.62 270.54 217.86 270.54 217.86 270.58C217.86 270.62 218.08 270.58 218.49 270.49L217.18 270.48Z" fill="#745063"/>
<path d="M225.05 256C224.523 255.274 223.881 254.64 223.15 254.12C221.618 252.99 219.764 252.38 217.86 252.38C215.956 252.38 214.102 252.99 212.57 254.12C211.836 254.639 211.191 255.274 210.66 256C210.136 256.688 209.724 257.454 209.44 258.27C208.918 259.681 208.758 261.2 208.975 262.688C209.192 264.176 209.778 265.587 210.68 266.79C210.79 266.93 210.91 267.06 211.02 267.19C211.39 265.996 212.1 264.936 213.062 264.139C214.025 263.342 215.198 262.842 216.44 262.7C215.656 262.357 214.991 261.79 214.53 261.069C214.068 260.348 213.832 259.506 213.85 258.65C213.811 258.093 213.887 257.534 214.073 257.007C214.259 256.481 214.552 255.998 214.933 255.59C215.314 255.181 215.775 254.855 216.287 254.633C216.799 254.41 217.351 254.295 217.91 254.295C218.468 254.295 219.021 254.41 219.533 254.633C220.045 254.855 220.506 255.181 220.887 255.59C221.268 255.998 221.561 256.481 221.747 257.007C221.933 257.534 222.009 258.093 221.97 258.65C221.976 259.496 221.736 260.325 221.277 261.035C220.819 261.746 220.163 262.307 219.39 262.65C220.617 262.796 221.775 263.298 222.72 264.094C223.666 264.89 224.357 265.945 224.71 267.13L225.04 266.74C225.938 265.535 226.522 264.124 226.738 262.637C226.955 261.149 226.797 259.631 226.28 258.22C225.983 257.423 225.569 256.674 225.05 256Z" fill="#FFF9FC"/>
<path d="M226.78 258.11C226.484 257.241 226.052 256.424 225.5 255.69C224.941 254.923 224.267 254.249 223.5 253.69C221.871 252.482 219.898 251.83 217.87 251.83C215.842 251.83 213.868 252.482 212.24 253.69C210.725 254.806 209.576 256.348 208.94 258.12C208.369 259.723 208.238 261.449 208.56 263.12C208.837 264.576 209.454 265.947 210.36 267.12C211.666 268.804 213.513 269.984 215.59 270.46C216.144 270.59 216.711 270.66 217.28 270.67C217.476 270.696 217.674 270.696 217.87 270.67C217.87 270.67 217.63 270.67 217.19 270.57H218.5C218.09 270.62 217.87 270.62 217.87 270.66C218.066 270.686 218.264 270.686 218.46 270.66C219.029 270.65 219.596 270.58 220.15 270.45C222.224 269.973 224.068 268.793 225.37 267.11C226.283 265.94 226.904 264.568 227.18 263.11C227.5 261.438 227.362 259.71 226.78 258.11ZM226.69 263C226.447 264.382 225.881 265.687 225.04 266.81L224.71 267.2C224.357 266.015 223.666 264.96 222.72 264.164C221.775 263.368 220.617 262.866 219.39 262.72C220.163 262.377 220.819 261.816 221.277 261.105C221.736 260.395 221.976 259.566 221.97 258.72C222.009 258.163 221.933 257.604 221.747 257.077C221.561 256.551 221.268 256.068 220.887 255.66C220.506 255.251 220.045 254.925 219.533 254.703C219.021 254.48 218.468 254.365 217.91 254.365C217.351 254.365 216.799 254.48 216.287 254.703C215.775 254.925 215.314 255.251 214.933 255.66C214.552 256.068 214.259 256.551 214.073 257.077C213.887 257.604 213.811 258.163 213.85 258.72C213.832 259.576 214.068 260.417 214.53 261.139C214.991 261.86 215.656 262.427 216.44 262.77C215.198 262.912 214.025 263.412 213.062 264.209C212.1 265.006 211.39 266.066 211.02 267.26C210.91 267.13 210.79 267 210.68 266.86C209.778 265.657 209.192 264.246 208.975 262.758C208.758 261.27 208.918 259.751 209.44 258.34C209.724 257.524 210.136 256.758 210.66 256.07C211.191 255.344 211.836 254.709 212.57 254.19C214.102 253.06 215.956 252.45 217.86 252.45C219.764 252.45 221.618 253.06 223.15 254.19C223.881 254.709 224.523 255.344 225.05 256.07C225.573 256.76 225.988 257.525 226.28 258.34C226.825 259.83 226.966 261.438 226.69 263Z" fill="#745063"/>
<path d="M325.9 278.91C325.9 278.91 326.19 278.91 326.73 278.8C327.531 278.634 328.269 278.246 328.86 277.68C329.335 277.22 329.702 276.66 329.934 276.041C330.166 275.422 330.257 274.759 330.2 274.1C330.2 272.51 330.2 270.69 330.2 268.63C330.2 264.51 330.2 259.48 330.15 253.63C330.15 252.17 330.15 250.63 330.15 249.1C330.19 248.323 330.017 247.549 329.648 246.863C329.28 246.177 328.731 245.606 328.06 245.21C326.68 244.34 324.88 244.72 323.15 244.64H317.77L202.77 244.73C202.114 244.728 201.466 244.884 200.883 245.185C200.3 245.486 199.798 245.923 199.42 246.46C199.037 246.988 198.793 247.603 198.71 248.25C198.659 248.915 198.642 249.583 198.66 250.25V274.7C198.689 275.319 198.857 275.923 199.151 276.469C199.445 277.014 199.858 277.486 200.36 277.85C200.855 278.211 201.426 278.454 202.03 278.56C202.661 278.624 203.296 278.648 203.93 278.63H226.59L278.28 278.69L313.12 278.79L322.6 278.84H325.06C325.62 278.84 325.9 278.84 325.9 278.84H325.06H322.6H313.12L278.28 278.93L226.59 279H203.93C203.262 279.028 202.593 279.001 201.93 278.92C201.239 278.808 200.584 278.534 200.02 278.12C199.448 277.709 198.976 277.173 198.642 276.553C198.307 275.932 198.119 275.244 198.09 274.54C198.09 269.207 198.09 263.82 198.09 258.38V250.12C198.09 249.42 198.09 248.76 198.09 248C198.191 247.261 198.469 246.558 198.9 245.95C199.335 245.338 199.909 244.838 200.575 244.49C201.241 244.143 201.979 243.958 202.73 243.95L317.73 244.04H325.73C326.607 244.016 327.472 244.238 328.23 244.68C328.953 245.11 329.544 245.73 329.941 246.472C330.337 247.214 330.524 248.05 330.48 248.89C330.48 250.45 330.48 251.96 330.48 253.42C330.48 259.26 330.48 264.29 330.43 268.42C330.43 270.48 330.43 272.3 330.43 273.89C330.476 274.569 330.371 275.249 330.122 275.882C329.873 276.515 329.486 277.085 328.99 277.55C328.376 278.119 327.613 278.5 326.79 278.65C326.508 278.78 326.208 278.868 325.9 278.91Z" fill="#745063"/>
<path d="M268.16 253.41H235.68V255.85H268.16V253.41Z" fill="#745063"/>
<path d="M292.58 267.18H235.68V269.62H292.58V267.18Z" fill="#745063"/>
<path d="M318.14 260.13H235.68V262.57H318.14V260.13Z" fill="#745063"/>
<path d="M217.18 314.28C217.62 314.33 217.86 314.34 217.86 314.38C217.86 314.42 218.08 314.33 218.49 314.29L217.18 314.28Z" fill="#745063"/>
<path d="M225.05 299.82C224.52 299.094 223.879 298.456 223.15 297.93C221.612 296.813 219.761 296.211 217.86 296.211C215.959 296.211 214.108 296.813 212.57 297.93C211.838 298.456 211.193 299.093 210.66 299.82C210.136 300.508 209.724 301.274 209.44 302.09C208.918 303.501 208.758 305.02 208.975 306.508C209.192 307.996 209.778 309.407 210.68 310.61C210.79 310.75 210.91 310.88 211.02 311.01C211.39 309.816 212.1 308.756 213.062 307.959C214.025 307.162 215.198 306.662 216.44 306.52C215.664 306.18 215.006 305.619 214.545 304.908C214.085 304.197 213.843 303.367 213.85 302.52C213.811 301.963 213.887 301.404 214.073 300.877C214.259 300.351 214.552 299.868 214.933 299.46C215.314 299.051 215.775 298.725 216.287 298.503C216.799 298.28 217.351 298.165 217.91 298.165C218.468 298.165 219.021 298.28 219.533 298.503C220.045 298.725 220.506 299.051 220.887 299.46C221.268 299.868 221.561 300.351 221.747 300.877C221.933 301.404 222.009 301.963 221.97 302.52C221.976 303.366 221.736 304.195 221.277 304.905C220.819 305.616 220.163 306.177 219.39 306.52C220.618 306.665 221.776 307.166 222.722 307.962C223.667 308.759 224.359 309.815 224.71 311C224.82 310.87 224.93 310.75 225.04 310.6C225.883 309.482 226.449 308.179 226.69 306.8C226.976 305.222 226.834 303.595 226.28 302.09C225.988 301.275 225.573 300.51 225.05 299.82Z" fill="#FFF9FC"/>
<path d="M226.78 301.9C226.484 301.034 226.052 300.22 225.5 299.49C224.943 298.722 224.268 298.047 223.5 297.49C221.869 296.288 219.896 295.64 217.87 295.64C215.844 295.64 213.871 296.288 212.24 297.49C211.469 298.044 210.794 298.719 210.24 299.49C209.689 300.222 209.254 301.035 208.95 301.9C208.381 303.503 208.25 305.229 208.57 306.9C208.844 308.357 209.461 309.729 210.37 310.9C211.672 312.589 213.521 313.773 215.6 314.25C216.154 314.38 216.721 314.45 217.29 314.46C217.486 314.486 217.684 314.486 217.88 314.46C217.88 314.46 217.64 314.41 217.2 314.36H218.51C218.1 314.36 217.88 314.36 217.88 314.45C218.076 314.476 218.274 314.476 218.47 314.45C219.039 314.44 219.606 314.37 220.16 314.24C221.904 313.82 223.491 312.907 224.732 311.611C225.973 310.316 226.816 308.691 227.16 306.93C227.49 305.25 227.359 303.511 226.78 301.9ZM226.69 306.8C226.449 308.179 225.883 309.482 225.04 310.6C224.93 310.75 224.82 310.87 224.71 311C224.359 309.815 223.667 308.759 222.722 307.962C221.776 307.166 220.618 306.665 219.39 306.52C220.163 306.177 220.819 305.616 221.277 304.905C221.736 304.195 221.976 303.366 221.97 302.52C222.009 301.963 221.933 301.404 221.747 300.877C221.561 300.351 221.268 299.868 220.887 299.46C220.506 299.051 220.045 298.725 219.533 298.503C219.021 298.28 218.468 298.165 217.91 298.165C217.351 298.165 216.799 298.28 216.287 298.503C215.775 298.725 215.314 299.051 214.933 299.46C214.552 299.868 214.259 300.351 214.073 300.877C213.887 301.404 213.811 301.963 213.85 302.52C213.843 303.367 214.085 304.197 214.545 304.908C215.006 305.619 215.664 306.18 216.44 306.52C215.196 306.657 214.019 307.154 213.053 307.95C212.087 308.745 211.373 309.805 211 311C210.89 310.87 210.77 310.74 210.66 310.6C209.758 309.397 209.172 307.986 208.955 306.498C208.738 305.01 208.898 303.491 209.42 302.08C209.704 301.264 210.116 300.498 210.64 299.81C211.173 299.083 211.818 298.446 212.55 297.92C214.088 296.803 215.939 296.201 217.84 296.201C219.741 296.201 221.592 296.803 223.13 297.92C224.558 298.971 225.646 300.417 226.26 302.08C226.822 303.587 226.971 305.216 226.69 306.8Z" fill="#745063"/>
<path d="M325.9 322.71C325.9 322.71 326.19 322.71 326.73 322.6C327.782 322.375 328.716 321.773 329.355 320.907C329.994 320.041 330.295 318.972 330.2 317.9C330.2 316.31 330.2 314.49 330.2 312.43C330.2 308.31 330.2 303.28 330.15 297.43C330.15 295.97 330.15 294.43 330.15 292.9C330.187 292.115 330.006 291.334 329.627 290.646C329.247 289.957 328.684 289.388 328 289C326.62 288.13 324.82 288.51 323.09 288.43H317.71L202.71 288.51C202.053 288.512 201.407 288.671 200.824 288.974C200.241 289.276 199.739 289.714 199.36 290.25C198.977 290.778 198.733 291.393 198.65 292.04C198.599 292.705 198.582 293.373 198.6 294.04V318.5C198.629 319.118 198.797 319.721 199.091 320.264C199.386 320.808 199.799 321.278 200.3 321.64C200.794 322.005 201.365 322.251 201.97 322.36C202.601 322.426 203.236 322.446 203.87 322.42H226.53L278.22 322.48L313.06 322.57L322.54 322.63H325H325.84C325.84 322.63 325.56 322.63 325 322.63H322.54L313.06 322.69L278.22 322.78L226.53 322.84H203.93C203.262 322.863 202.594 322.836 201.93 322.76C201.238 322.644 200.584 322.367 200.02 321.95C199.448 321.541 198.976 321.007 198.642 320.388C198.308 319.77 198.119 319.083 198.09 318.38C198.09 313.08 198.09 307.693 198.09 302.22V293.96C198.09 293.26 198.09 292.6 198.09 291.84C198.191 291.101 198.469 290.398 198.9 289.79C199.334 289.176 199.907 288.675 200.573 288.327C201.239 287.979 201.979 287.795 202.73 287.79L317.73 287.88H325.73C326.607 287.856 327.472 288.078 328.23 288.52C328.954 288.95 329.546 289.569 329.942 290.311C330.339 291.053 330.525 291.89 330.48 292.73C330.48 294.29 330.48 295.8 330.48 297.26C330.48 303.1 330.48 308.13 330.43 312.26C330.43 314.32 330.43 316.14 330.43 317.73C330.475 318.409 330.37 319.089 330.121 319.722C329.872 320.355 329.486 320.924 328.99 321.39C328.379 321.96 327.614 322.339 326.79 322.48C326.507 322.602 326.207 322.68 325.9 322.71Z" fill="#745063"/>
<path d="M268.16 297.21H235.68V299.65H268.16V297.21Z" fill="#745063"/>
<path d="M292.58 310.97H235.68V313.41H292.58V310.97Z" fill="#745063"/>
<path d="M318.14 303.92H235.68V306.36H318.14V303.92Z" fill="#745063"/>
<path d="M326.29 165.1C329.968 165.1 332.95 162.118 332.95 158.44C332.95 154.762 329.968 151.78 326.29 151.78C322.612 151.78 319.63 154.762 319.63 158.44C319.63 162.118 322.612 165.1 326.29 165.1Z" fill="#613B4F"/>
<path d="M323.02 157.9L325.82 160.36L329.55 156.52" stroke="#FFF9FC" stroke-linecap="round" stroke-linejoin="round"/>
<path d="M141.72 454.97L140.09 464.44L154.69 465.51L154.74 456.2L141.72 454.97Z" fill="#DF1683"/>
<path d="M148.3 455.1C148.26 457.993 147.925 460.875 147.3 463.7C147.244 462.252 147.331 460.801 147.56 459.37C147.664 457.926 147.912 456.495 148.3 455.1Z" fill="#613B4F"/>
<path d="M154.69 464.48C153.983 464.491 153.277 464.438 152.58 464.32L147.51 463.76C145.51 463.53 143.73 463.29 142.44 463.07C141.736 462.989 141.042 462.835 140.37 462.61C141.077 462.585 141.784 462.636 142.48 462.76L147.56 463.33C149.56 463.55 151.33 463.8 152.62 464.02C153.324 464.101 154.018 464.255 154.69 464.48Z" fill="#613B4F"/>
<path d="M194.42 460.14V451.64L178.52 451.49L178.35 463.92L179.35 463.99C183.74 464.27 201.68 465.13 204.62 464.27C207.91 463.31 194.42 460.14 194.42 460.14Z" fill="#DF1683"/>
<g opacity="0.38">
<path d="M184.14 463.85C183.916 462.506 183.204 461.291 182.14 460.44C181.096 459.591 179.773 459.163 178.43 459.24V463.69L184.14 463.85Z" fill="#110009"/>
</g>
<g opacity="0.38">
<path d="M201 461.92C201 461.92 205.72 463.33 205.12 464.11C204.52 464.89 186.36 464.7 178.36 463.92V463.56L199.54 463.95C199.54 463.95 200.08 462 201 461.92Z" fill="#110009"/>
</g>
<path d="M178.15 463.55H178.42L179.2 463.61L182.09 463.76C184.54 463.87 187.91 463.98 191.64 464.02C195.37 464.06 198.74 464.02 201.19 463.97L204.08 463.88H204.87C204.96 463.893 205.05 463.893 205.14 463.88H204.08H201.19C198.74 463.88 195.37 463.88 191.64 463.88C187.91 463.88 184.54 463.75 182.1 463.67L179.21 463.58H178.42L178.15 463.55Z" fill="#613B4F"/>
<path d="M199.57 464.2C199.703 463.723 199.891 463.263 200.13 462.83C200.424 462.43 200.759 462.061 201.13 461.73C200.635 461.912 200.223 462.267 199.97 462.73C199.662 463.155 199.519 463.678 199.57 464.2Z" fill="#613B4F"/>
<path d="M194.9 461.77C194.9 461.77 195.17 461.53 195.41 461.17C195.581 460.964 195.701 460.721 195.76 460.46C195.76 460.46 195.48 460.7 195.25 461.06C195.02 461.42 194.86 461.74 194.9 461.77Z" fill="#613B4F"/>
<path d="M193.62 461.08C193.62 461.08 193.91 460.95 194.19 460.71C194.47 460.47 194.66 460.24 194.62 460.2C194.58 460.16 194.34 460.32 194.06 460.57C193.78 460.82 193.59 461 193.62 461.08Z" fill="#613B4F"/>
<path d="M192.82 459.57C193.367 459.69 193.933 459.69 194.48 459.57C194.48 459.51 194.11 459.46 193.66 459.45C193.375 459.429 193.088 459.47 192.82 459.57Z" fill="#613B4F"/>
<path d="M192.55 458.51C192.826 458.692 193.149 458.789 193.48 458.79C193.818 458.856 194.167 458.814 194.48 458.67C194.17 458.612 193.855 458.588 193.54 458.6C193.214 458.536 192.882 458.505 192.55 458.51Z" fill="#613B4F"/>
<path d="M195.46 460.39C195.791 460.443 196.129 460.443 196.46 460.39C196.829 460.343 197.193 460.266 197.55 460.16C197.766 460.101 197.974 460.017 198.17 459.91C198.233 459.877 198.288 459.831 198.332 459.776C198.377 459.721 198.41 459.658 198.43 459.59C198.445 459.514 198.439 459.436 198.412 459.364C198.386 459.292 198.34 459.228 198.28 459.18C197.893 458.981 197.448 458.926 197.023 459.022C196.599 459.119 196.223 459.363 195.96 459.71C195.796 459.904 195.679 460.133 195.62 460.38C195.62 460.56 195.62 460.66 195.62 460.66C195.722 460.343 195.881 460.048 196.09 459.79C196.324 459.523 196.629 459.329 196.97 459.23C197.374 459.102 197.812 459.138 198.19 459.33C198.35 459.45 198.28 459.64 198.1 459.75C197.917 459.845 197.726 459.925 197.53 459.99C197.184 460.105 196.83 460.192 196.47 460.25C195.85 460.36 195.46 460.36 195.46 460.39Z" fill="#613B4F"/>
<path d="M195.72 460.44C195.72 460.44 195.89 460.2 195.85 459.74C195.816 459.472 195.72 459.215 195.57 458.99C195.488 458.836 195.368 458.706 195.22 458.613C195.073 458.52 194.904 458.468 194.73 458.46C194.678 458.47 194.628 458.489 194.584 458.518C194.54 458.547 194.502 458.585 194.472 458.628C194.442 458.672 194.421 458.721 194.411 458.773C194.4 458.825 194.4 458.878 194.41 458.93C194.431 459.091 194.49 459.245 194.58 459.38C194.712 459.607 194.87 459.819 195.05 460.01C195.209 460.192 195.407 460.336 195.63 460.43C195.63 460.43 195.43 460.24 195.15 459.92C194.995 459.724 194.855 459.517 194.73 459.3C194.59 459.08 194.5 458.69 194.73 458.65C194.96 458.61 195.24 458.88 195.4 459.09C195.542 459.29 195.637 459.519 195.68 459.76C195.715 459.985 195.728 460.213 195.72 460.44Z" fill="#613B4F"/>
<path d="M178.52 459.2C178.52 459.2 178.97 459.2 179.69 459.25C180.624 459.371 181.507 459.749 182.24 460.34C182.969 460.938 183.516 461.728 183.82 462.62C183.936 462.991 184.033 463.369 184.11 463.75C184.127 463.644 184.127 463.536 184.11 463.43C184.082 463.138 184.025 462.85 183.94 462.57C183.658 461.636 183.105 460.808 182.35 460.19C181.592 459.572 180.665 459.199 179.69 459.12C179.401 459.088 179.109 459.088 178.82 459.12C178.716 459.128 178.614 459.155 178.52 459.2Z" fill="#613B4F"/>
<path d="M180.23 452.6C180.111 453.683 180.054 454.771 180.06 455.86C179.999 456.949 179.999 458.041 180.06 459.13C180.179 458.047 180.236 456.959 180.23 455.87C180.291 454.781 180.291 453.689 180.23 452.6Z" fill="#613B4F"/>
<path d="M186.15 462.32C186.909 462.504 187.689 462.588 188.47 462.57C189.25 462.619 190.034 462.565 190.8 462.41C190.8 462.35 189.8 462.41 188.48 462.41C187.16 462.41 186.16 462.26 186.15 462.32Z" fill="#613B4F"/>
<path d="M183 462.28C183 462.28 183.08 462.5 183.18 462.74C183.28 462.98 183.34 463.19 183.4 463.19C183.46 463.19 183.48 462.94 183.4 462.66C183.32 462.38 183.07 462.24 183 462.28Z" fill="#613B4F"/>
<path d="M181.88 460.81C181.88 460.81 181.94 461.01 182.1 461.18C182.26 461.35 182.43 461.45 182.47 461.42C182.51 461.39 182.4 461.21 182.24 461.04C182.08 460.87 181.91 460.77 181.88 460.81Z" fill="#613B4F"/>
<path d="M180.2 460.12C180.2 460.17 180.42 460.17 180.66 460.26C180.9 460.35 181.06 460.47 181.1 460.43C181.14 460.39 181.01 460.18 180.72 460.08C180.43 459.98 180.19 460.07 180.2 460.12Z" fill="#613B4F"/>
<path d="M179 459.79C179 459.79 179.07 459.93 179.2 459.98C179.33 460.03 179.45 459.98 179.47 459.98C179.49 459.98 179.4 459.85 179.27 459.8C179.14 459.75 179 459.74 179 459.79Z" fill="#613B4F"/>
<path d="M170.3 202.06C170.42 199.57 170.69 196.75 170.69 196.75C170.69 196.75 176.85 196.08 177.22 189.75C177.59 183.42 177.22 168.75 177.22 168.75L166 163L153.65 172.74L155.52 204.57L166.88 205.29C167.318 205.309 167.756 205.239 168.167 205.086C168.578 204.933 168.954 204.699 169.272 204.398C169.591 204.096 169.847 203.734 170.023 203.333C170.2 202.931 170.294 202.499 170.3 202.06Z" fill="#FFBE9D"/>
<path d="M171.41 184.68C171.41 184.68 171.41 184.79 171.31 184.95C171.226 185.053 171.118 185.134 170.997 185.188C170.875 185.242 170.743 185.267 170.61 185.26C169.89 185.26 169.2 184.44 168.95 183.47C168.836 183.007 168.836 182.523 168.95 182.06C168.964 181.849 169.033 181.646 169.151 181.47C169.268 181.294 169.43 181.153 169.62 181.06C169.694 181.028 169.774 181.011 169.855 181.011C169.936 181.011 170.016 181.028 170.09 181.06C170.204 181.111 170.294 181.204 170.34 181.32C170.43 181.5 170.34 181.62 170.34 181.61C170.34 181.6 170.34 181.5 170.22 181.39C170.163 181.307 170.077 181.248 169.978 181.226C169.88 181.204 169.777 181.22 169.69 181.27C169.557 181.358 169.446 181.476 169.368 181.615C169.289 181.755 169.246 181.91 169.24 182.07C169.162 182.488 169.179 182.919 169.29 183.33C169.51 184.2 170.11 184.9 170.64 184.97C170.746 184.984 170.854 184.976 170.957 184.947C171.061 184.917 171.157 184.868 171.24 184.8C171.35 184.76 171.39 184.67 171.41 184.68Z" fill="#EB996E"/>
<path d="M171.37 188.61C171.45 188.38 171.5 188.13 171.57 187.89C171.64 187.65 171.66 187.55 171.72 187.37C171.827 186.847 171.884 186.314 171.89 185.78C171.342 185.992 170.744 186.039 170.17 185.915C169.596 185.79 169.071 185.5 168.66 185.08C168.246 184.642 167.958 184.101 167.824 183.514C167.69 182.926 167.717 182.314 167.9 181.74C168.163 181.111 168.555 180.545 169.051 180.078C169.547 179.611 170.137 179.254 170.78 179.03C172.02 178.51 173.35 178.25 174.57 177.67C177.15 176.45 178.93 173.9 180.15 171.23C181 169.36 181.64 167.23 181.06 165.23C180.2 162.3 177.06 160.85 174.25 160.04C169.93 158.82 165.25 158.28 161.03 159.83C156.81 161.38 151.74 164.12 151.74 168.78C149.25 168.57 147.83 170.78 146.84 173.46C146.353 175.139 145.985 176.849 145.74 178.58" fill="#613B4F"/>
<path d="M155.14 198C152.027 195.852 149.524 192.934 147.874 189.531C146.225 186.127 145.486 182.354 145.73 178.58C146.37 165.22 171.37 188.58 171.37 188.58C171.37 188.58 166.58 204.32 155.65 197.97" fill="#613B4F"/>
<path d="M151.43 184.68C151.36 184.62 151.86 184.15 152.27 183.18C152.55 182.564 152.697 181.896 152.702 181.219C152.708 180.542 152.57 179.872 152.3 179.251C152.029 178.631 151.631 178.074 151.132 177.617C150.632 177.161 150.042 176.814 149.4 176.6C148.4 176.24 147.72 176.29 147.72 176.2C148.306 176.02 148.935 176.037 149.51 176.25C150.223 176.451 150.884 176.804 151.447 177.286C152.01 177.768 152.461 178.366 152.77 179.04C153.062 179.723 153.198 180.462 153.169 181.204C153.139 181.946 152.945 182.672 152.6 183.33C152.07 184.34 151.46 184.72 151.43 184.68Z" fill="#DF1683"/>
<path d="M146.28 176.5C146.054 176.529 145.824 176.479 145.63 176.36C145.068 176.085 144.607 175.641 144.31 175.09C143.895 174.266 143.745 173.333 143.88 172.42C143.996 171.316 144.337 170.248 144.88 169.28C145.436 168.288 146.309 167.513 147.36 167.08C148.232 166.724 149.208 166.724 150.08 167.08C150.657 167.321 151.145 167.733 151.48 168.26C151.69 168.64 151.72 168.89 151.69 168.89C151.283 168.224 150.668 167.711 149.94 167.43C149.155 167.159 148.297 167.198 147.54 167.54C146.606 167.949 145.83 168.651 145.33 169.54C144.26 171.45 143.96 173.64 144.61 174.91C144.967 175.616 145.557 176.178 146.28 176.5Z" fill="#613B4F"/>
<path d="M259.83 181C259.38 180.54 258.28 180.76 258.28 180.76C258.385 180.118 258.385 179.462 258.28 178.82C258.08 178.19 256.67 178.31 256.67 178.31C256.603 177.782 256.603 177.248 256.67 176.72C256.677 176.604 256.65 176.489 256.591 176.389C256.532 176.29 256.445 176.21 256.34 176.16C255.674 175.89 254.959 175.761 254.24 175.78C253.37 175.16 256.86 170.28 258.16 168.72C259.46 167.16 259.22 165.95 258.07 165.95C257.28 165.95 253.21 170.64 251.96 172.21C250.71 173.78 247.39 178.16 247.28 174.67C247.17 171.18 245.76 168.53 244.88 168.08C244 167.63 243.06 168.69 243.55 169.66C243.967 170.762 244.23 171.916 244.33 173.09C244.442 174.034 244.398 174.99 244.2 175.92C243.835 177.624 243.334 179.296 242.7 180.92L242.61 180.87C242.61 180.87 218.24 204.24 216.48 205.87C214.9 207.37 183.23 204.09 176.89 203.42C174.727 203.112 172.545 202.965 170.36 202.98C167.61 203.1 167.12 203.49 164.36 203.52C157.807 203.542 151.266 204.091 144.8 205.16C138.47 206.23 134.99 211.16 133.04 217.29C126.63 237.29 109.31 284.29 106.72 310.89C104.789 314.396 103.043 318.001 101.49 321.69C99.7 326.58 100.14 326.75 100.74 326.86C102.36 327.16 104.22 318.39 104.92 320.5C105.62 322.61 101.4 330.97 103.11 331.21C105.33 331.53 107.11 322.31 107.32 321.54C107.53 320.77 108.65 321.05 108.42 321.73C108.1 322.73 104.96 333.13 107.14 333.47C108.35 333.65 108.48 331.47 108.48 331.47C108.48 331.47 110.7 321.47 111.73 321.7C112.76 321.93 111.67 327.79 111.15 329.75C110.63 331.71 111.36 332.75 112.4 332.23C113.12 331.9 114.83 325.93 115.3 323.98C115.77 322.03 116.93 316.66 118.51 319.78C120.09 322.9 122.51 324.7 123.51 324.78C123.74 324.77 123.961 324.687 124.141 324.543C124.322 324.399 124.452 324.202 124.513 323.98C124.574 323.758 124.563 323.522 124.482 323.306C124.4 323.091 124.253 322.907 124.06 322.78C123.214 321.955 122.487 321.016 121.9 319.99C121.397 319.182 121.032 318.297 120.82 317.37C120.377 315.517 120.119 313.624 120.05 311.72L119.86 310.57C122.36 298.19 130.86 255.99 141.19 232.77L144.19 247.41L146.04 253.9L134.67 282L183.14 281.36L175.91 253.52L184.69 224.52C194.2 224.73 218.6 225.09 222.69 223.25C227.8 220.97 254.27 187.61 254.27 187.61C256.013 186.271 257.682 184.839 259.27 183.32C259.27 183.32 260.8 182 259.83 181Z" fill="#FFBE9D"/>
<path d="M132.56 261.34C133.96 256.54 141.18 232.8 141.18 232.8C141.18 232.8 144.73 252.15 143.8 254.48C142.94 256.479 141.92 258.405 140.75 260.24C132.56 272.72 133.63 278.96 133.63 278.96L183.14 277.45C183.26 270.53 179.14 254.45 178.3 251.86C177.46 249.27 180.3 240.86 180.3 240.86C180.3 240.86 185.9 235.18 185.68 232.26C185.563 229.637 185.229 227.028 184.68 224.46L221.35 225.16L217.25 205.23L181.89 202.64L170.13 201.54C164.21 206.54 155.34 201.54 155.34 201.54C144.06 202.64 142.41 204.45 137.78 209.08C132.28 214.56 117.42 256.49 117.42 256.49L132.56 261.34Z" fill="#DF1683"/>
<path d="M161.84 256.51C160.979 256.66 160.102 256.704 159.23 256.64C157.61 256.64 155.39 256.53 152.94 256.29C150.49 256.05 148.29 255.69 146.71 255.38C145.842 255.272 144.992 255.054 144.18 254.73C145.05 254.726 145.917 254.81 146.77 254.98C148.37 255.18 150.56 255.46 153 255.71C155.44 255.96 157.64 256.12 159.24 256.23C160.114 256.234 160.985 256.328 161.84 256.51Z" fill="#613B4F"/>
<path d="M165.22 252.3C164.362 252.719 163.455 253.028 162.52 253.22C160.296 253.809 158.034 254.24 155.75 254.51C153.468 254.784 151.168 254.895 148.87 254.84C147.916 254.868 146.963 254.781 146.03 254.58C146.97 254.446 147.921 254.396 148.87 254.43C150.62 254.37 153.03 254.25 155.69 253.93C158.35 253.61 160.69 253.18 162.43 252.82C163.343 252.564 164.276 252.39 165.22 252.3Z" fill="#613B4F"/>
<path d="M181.88 233.52C181.869 234.371 181.755 235.217 181.54 236.04C181.25 237.59 180.8 239.71 180.23 242.04C179.66 244.37 179.08 246.46 178.62 247.97C178.428 248.799 178.136 249.602 177.75 250.36C177.81 249.511 177.968 248.673 178.22 247.86C178.64 246.12 179.13 244.12 179.66 241.91C180.19 239.7 180.71 237.7 181.14 235.91C181.296 235.088 181.545 234.286 181.88 233.52Z" fill="#613B4F"/>
<path d="M133.3 279.3L182.8 277.79L204.34 361.91L200.34 458.4H174.14L177.41 364L158.26 305.4L161.17 459.4L134.71 459.79L132 315.2C131.89 311.11 130.54 301.87 131 297.81L133.3 279.3Z" fill="#745063"/>
<path d="M164.86 306.59C164.047 306.648 163.231 306.6 162.43 306.45C160.94 306.27 158.89 305.96 156.65 305.51C154.41 305.06 152.39 304.51 150.95 304.14C150.152 303.969 149.379 303.697 148.65 303.33C148.65 303.17 152.29 304.04 156.76 304.94C161.23 305.84 164.88 306.42 164.86 306.59Z" fill="#613B4F"/>
<path d="M200.13 453.11C200.13 453.27 194.2 453.4 186.88 453.4C179.56 453.4 174.35 453.17 174.35 453.01C174.35 452.85 179.56 452.82 186.88 452.82C194.2 452.82 200.13 453 200.13 453.11Z" fill="#613B4F"/>
<path d="M160.8 453.4C160.8 453.56 155.04 453.69 147.94 453.69C140.84 453.69 135.09 453.56 135.09 453.4C135.09 453.24 140.84 453.11 147.94 453.11C155.04 453.11 160.8 453.24 160.8 453.4Z" fill="#613B4F"/>
<path d="M157.57 453.4C157.41 453.4 156.71 420.11 156.01 379.04C155.31 337.97 154.88 304.68 155.01 304.67C155.14 304.66 155.9 338 156.6 379C157.3 420 157.73 453.39 157.57 453.4Z" fill="#613B4F"/>
<path d="M196.61 453.11C196.599 452.957 196.599 452.803 196.61 452.65C196.61 452.32 196.61 451.88 196.61 451.31C196.61 450.11 196.69 448.38 196.76 446.17C196.91 441.68 197.14 435.23 197.41 427.27C198.02 411.27 198.87 389.27 199.8 364.91C199.8 364.68 199.8 364.46 199.8 364.25V364.33C193.93 340.84 188.63 319.6 184.8 304.2L180.35 286C179.84 283.87 179.44 282.21 179.17 281C179.043 280.46 178.943 280.03 178.87 279.71C178.832 279.566 178.806 279.418 178.79 279.27C178.853 279.407 178.9 279.552 178.93 279.7C179.01 280.01 179.13 280.43 179.28 280.97C179.58 282.13 180.02 283.79 180.57 285.91C181.68 290.22 183.27 296.42 185.23 304.07C189.12 319.46 194.48 340.68 200.42 364.16V364.25C200.42 364.45 200.42 364.68 200.42 364.9C199.42 389.24 198.52 411.27 197.86 427.25C197.51 435.25 197.22 441.66 197.02 446.15C196.91 448.36 196.82 450.08 196.76 451.29C196.76 451.85 196.7 452.29 196.68 452.62C196.673 452.785 196.65 452.949 196.61 453.11Z" fill="#613B4F"/>
<path d="M188.07 362.29C186.186 362.906 184.247 363.338 182.28 363.58C179.88 363.99 177.8 364.27 176.89 364.33V364.1C177.19 364.18 177.35 364.25 177.34 364.29C177.33 364.33 177.16 364.29 176.85 364.29H176.18L176.85 364.09C177.72 363.83 179.78 363.41 182.19 362.99C184.122 362.565 186.092 362.331 188.07 362.29Z" fill="#613B4F"/>
<path d="M187.57 365.5C185.83 365.57 184.087 365.489 182.36 365.26C180.617 365.215 178.881 365.025 177.17 364.69C178.909 364.452 180.671 364.452 182.41 364.69C184.159 364.723 185.895 364.996 187.57 365.5Z" fill="#613B4F"/>
<path d="M133.08 281.07C134.27 282.76 135.98 283.35 137.96 283.67C139.956 283.908 141.974 283.871 143.96 283.56C156.74 282.14 170.28 280.83 182.79 277.79C166.59 278.69 149.49 278.39 133.29 279.3C133.29 279.3 133.15 280.41 133.12 280.68" fill="#613B4F"/>
<path d="M149.78 303.91L158.9 339.34L158.26 305.4L149.78 303.91Z" fill="#613B4F"/>
<path d="M147.94 176.91C144.42 175.97 140.74 179.72 140.62 183.36C140.62 184.36 140.73 185.6 139.99 186.36C139.25 187.12 137.93 186.91 136.82 187C135.686 187.113 134.625 187.61 133.812 188.408C132.999 189.206 132.483 190.258 132.35 191.39C132.19 193.01 132.84 194.75 132.16 196.23C131.48 197.71 129.91 198.31 128.82 199.41C128.159 200.159 127.661 201.037 127.36 201.99C127.059 202.942 126.96 203.947 127.07 204.94C127.307 206.925 127.829 208.865 128.62 210.7C129.26 212.41 130.14 213.84 131.82 214.92C133.5 216 143.671 219.892 146.61 214.92C147.741 213.007 147.72 209.34 147.72 209.34C147.72 209.34 147.366 214.169 149.53 214.92C150.419 215.228 151.001 214.983 151.94 214.92C166.067 213.979 150.64 178.69 150.64 178.69C150.64 178.69 150.63 177.62 147.94 176.91Z" fill="#613B4F"/>
<path d="M127.71 194.21C127.71 194.21 127.55 194.21 127.31 194.29C127.138 194.384 127.007 194.538 126.943 194.723C126.878 194.907 126.884 195.11 126.96 195.29C127.146 195.698 127.48 196.02 127.895 196.19C128.31 196.36 128.775 196.365 129.193 196.205C129.612 196.044 129.954 195.729 130.148 195.325C130.343 194.921 130.375 194.458 130.24 194.03C130.029 193.55 129.757 193.1 129.43 192.69C128.672 191.68 128.345 190.411 128.52 189.16C128.61 188.467 128.858 187.803 129.247 187.222C129.636 186.641 130.153 186.158 130.76 185.81C131.409 185.43 132.139 185.209 132.89 185.166C133.641 185.122 134.391 185.257 135.08 185.56C136.44 186.15 137.62 187.02 138.93 186.84C139.225 186.828 139.513 186.743 139.766 186.591C140.02 186.439 140.231 186.225 140.38 185.97C140.591 185.402 140.659 184.791 140.58 184.19C140.501 183.042 140.668 181.891 141.07 180.813C141.472 179.736 142.099 178.756 142.91 177.94C144.052 176.871 145.566 176.289 147.13 176.32C147.545 176.332 147.955 176.402 148.35 176.53C148.492 176.564 148.627 176.622 148.75 176.7C148.215 176.598 147.674 176.538 147.13 176.52C145.63 176.554 144.2 177.159 143.13 178.21C142.374 179.004 141.795 179.949 141.431 180.984C141.067 182.018 140.927 183.118 141.02 184.21C141.109 184.886 141.027 185.574 140.78 186.21C140.596 186.542 140.33 186.822 140.009 187.023C139.687 187.224 139.319 187.34 138.94 187.36C138.199 187.431 137.452 187.299 136.78 186.98C136.1 186.69 135.48 186.32 134.84 186.05C134.225 185.781 133.555 185.659 132.885 185.696C132.215 185.732 131.562 185.925 130.98 186.26C130.438 186.572 129.976 187.005 129.629 187.526C129.282 188.046 129.06 188.64 128.98 189.26C128.808 190.4 129.096 191.562 129.78 192.49C130.122 192.933 130.401 193.421 130.61 193.94C130.704 194.199 130.746 194.473 130.732 194.748C130.718 195.023 130.65 195.292 130.53 195.54C130.323 195.979 129.969 196.333 129.53 196.54C129.128 196.719 128.68 196.764 128.25 196.67C127.908 196.605 127.59 196.447 127.331 196.215C127.072 195.982 126.881 195.683 126.78 195.35C126.707 195.136 126.718 194.902 126.811 194.696C126.903 194.49 127.071 194.327 127.28 194.24C127.57 194.1 127.72 194.21 127.71 194.21Z" fill="#613B4F"/>
<path d="M185 224.14C184.622 224.192 184.238 224.192 183.86 224.14C182.819 224.014 181.806 223.72 180.86 223.27C179.449 222.608 178.189 221.661 177.16 220.49C175.854 219.071 174.973 217.313 174.62 215.417C174.266 213.522 174.453 211.564 175.16 209.77C175.707 208.309 176.551 206.977 177.64 205.86C178.362 205.102 179.203 204.467 180.13 203.98C180.458 203.783 180.816 203.641 181.19 203.56C179.981 204.25 178.876 205.108 177.91 206.11C176.9 207.22 176.118 208.518 175.61 209.93C174.952 211.644 174.778 213.506 175.108 215.312C175.437 217.119 176.258 218.799 177.48 220.17C178.457 221.311 179.645 222.251 180.98 222.94C182.26 223.52 183.612 223.923 185 224.14Z" fill="#613B4F"/>
</svg>
